G04 #@! TF.FileFunction,Legend,Top*
%FSLAX46Y46*%
G04 Gerber Fmt 4.6, Leading zero omitted, Abs format (unit mm)*
G04 Created by KiCad (PCBNEW 4.0.7-e2-6376~58~ubuntu16.04.1) date Wed Nov 28 15:41:44 2018*
%MOMM*%
%LPD*%
G01*
G04 APERTURE LIST*
%ADD10C,0.100000*%
%ADD11C,0.254000*%
%ADD12C,0.381000*%
%ADD13C,0.304800*%
%ADD14C,0.177800*%
G04 APERTURE END LIST*
D10*
D11*
X55952571Y-268659429D02*
X55952571Y-267135429D01*
X56533143Y-267135429D01*
X56678285Y-267208000D01*
X56750857Y-267280571D01*
X56823428Y-267425714D01*
X56823428Y-267643429D01*
X56750857Y-267788571D01*
X56678285Y-267861143D01*
X56533143Y-267933714D01*
X55952571Y-267933714D01*
X58129714Y-268659429D02*
X58129714Y-267861143D01*
X58057143Y-267716000D01*
X57912000Y-267643429D01*
X57621714Y-267643429D01*
X57476571Y-267716000D01*
X58129714Y-268586857D02*
X57984571Y-268659429D01*
X57621714Y-268659429D01*
X57476571Y-268586857D01*
X57404000Y-268441714D01*
X57404000Y-268296571D01*
X57476571Y-268151429D01*
X57621714Y-268078857D01*
X57984571Y-268078857D01*
X58129714Y-268006286D01*
X58637714Y-267643429D02*
X59218285Y-267643429D01*
X58855428Y-267135429D02*
X58855428Y-268441714D01*
X58928000Y-268586857D01*
X59073142Y-268659429D01*
X59218285Y-268659429D01*
X59726285Y-268659429D02*
X59726285Y-267135429D01*
X60379428Y-268659429D02*
X60379428Y-267861143D01*
X60306857Y-267716000D01*
X60161714Y-267643429D01*
X59943999Y-267643429D01*
X59798857Y-267716000D01*
X59726285Y-267788571D01*
X61105142Y-268659429D02*
X61105142Y-267135429D01*
X61830856Y-267643429D02*
X61830856Y-268659429D01*
X61830856Y-267788571D02*
X61903428Y-267716000D01*
X62048570Y-267643429D01*
X62266285Y-267643429D01*
X62411428Y-267716000D01*
X62483999Y-267861143D01*
X62483999Y-268659429D01*
X62991999Y-267643429D02*
X63572570Y-267643429D01*
X63209713Y-267135429D02*
X63209713Y-268441714D01*
X63282285Y-268586857D01*
X63427427Y-268659429D01*
X63572570Y-268659429D01*
X65169142Y-268224000D02*
X65894856Y-268224000D01*
X65023999Y-268659429D02*
X65531999Y-267135429D01*
X66039999Y-268659429D01*
X66547999Y-268659429D02*
X66547999Y-267643429D01*
X66547999Y-267933714D02*
X66620571Y-267788571D01*
X66693142Y-267716000D01*
X66838285Y-267643429D01*
X66983428Y-267643429D01*
X68072000Y-268586857D02*
X67926857Y-268659429D01*
X67636571Y-268659429D01*
X67491428Y-268586857D01*
X67418857Y-268441714D01*
X67418857Y-267861143D01*
X67491428Y-267716000D01*
X67636571Y-267643429D01*
X67926857Y-267643429D01*
X68072000Y-267716000D01*
X68144571Y-267861143D01*
X68144571Y-268006286D01*
X67418857Y-268151429D01*
X68797714Y-267643429D02*
X68797714Y-268659429D01*
X68797714Y-267788571D02*
X68870286Y-267716000D01*
X69015428Y-267643429D01*
X69233143Y-267643429D01*
X69378286Y-267716000D01*
X69450857Y-267861143D01*
X69450857Y-268659429D01*
X70829714Y-268659429D02*
X70829714Y-267861143D01*
X70757143Y-267716000D01*
X70612000Y-267643429D01*
X70321714Y-267643429D01*
X70176571Y-267716000D01*
X70829714Y-268586857D02*
X70684571Y-268659429D01*
X70321714Y-268659429D01*
X70176571Y-268586857D01*
X70104000Y-268441714D01*
X70104000Y-268296571D01*
X70176571Y-268151429D01*
X70321714Y-268078857D01*
X70684571Y-268078857D01*
X70829714Y-268006286D01*
X72571428Y-267135429D02*
X73514857Y-267135429D01*
X73006857Y-267716000D01*
X73224571Y-267716000D01*
X73369714Y-267788571D01*
X73442285Y-267861143D01*
X73514857Y-268006286D01*
X73514857Y-268369143D01*
X73442285Y-268514286D01*
X73369714Y-268586857D01*
X73224571Y-268659429D01*
X72789143Y-268659429D01*
X72644000Y-268586857D01*
X72571428Y-268514286D01*
X74022857Y-268659429D02*
X74821143Y-267643429D01*
X74022857Y-267643429D02*
X74821143Y-268659429D01*
X75329143Y-267280571D02*
X75401714Y-267208000D01*
X75546857Y-267135429D01*
X75909714Y-267135429D01*
X76054857Y-267208000D01*
X76127428Y-267280571D01*
X76200000Y-267425714D01*
X76200000Y-267570857D01*
X76127428Y-267788571D01*
X75256571Y-268659429D01*
X76200000Y-268659429D01*
X77941715Y-268586857D02*
X78159429Y-268659429D01*
X78522286Y-268659429D01*
X78667429Y-268586857D01*
X78740000Y-268514286D01*
X78812572Y-268369143D01*
X78812572Y-268224000D01*
X78740000Y-268078857D01*
X78667429Y-268006286D01*
X78522286Y-267933714D01*
X78232000Y-267861143D01*
X78086858Y-267788571D01*
X78014286Y-267716000D01*
X77941715Y-267570857D01*
X77941715Y-267425714D01*
X78014286Y-267280571D01*
X78086858Y-267208000D01*
X78232000Y-267135429D01*
X78594858Y-267135429D01*
X78812572Y-267208000D01*
X79248001Y-267643429D02*
X79828572Y-267643429D01*
X79465715Y-267135429D02*
X79465715Y-268441714D01*
X79538287Y-268586857D01*
X79683429Y-268659429D01*
X79828572Y-268659429D01*
X80336572Y-268659429D02*
X80336572Y-267643429D01*
X80336572Y-267135429D02*
X80264001Y-267208000D01*
X80336572Y-267280571D01*
X80409144Y-267208000D01*
X80336572Y-267135429D01*
X80336572Y-267280571D01*
X81062286Y-268659429D02*
X81062286Y-267643429D01*
X81062286Y-267788571D02*
X81134858Y-267716000D01*
X81280000Y-267643429D01*
X81497715Y-267643429D01*
X81642858Y-267716000D01*
X81715429Y-267861143D01*
X81715429Y-268659429D01*
X81715429Y-267861143D02*
X81788000Y-267716000D01*
X81933143Y-267643429D01*
X82150858Y-267643429D01*
X82296000Y-267716000D01*
X82368572Y-267861143D01*
X82368572Y-268659429D01*
X83747429Y-267643429D02*
X83747429Y-268659429D01*
X83094286Y-267643429D02*
X83094286Y-268441714D01*
X83166858Y-268586857D01*
X83312000Y-268659429D01*
X83529715Y-268659429D01*
X83674858Y-268586857D01*
X83747429Y-268514286D01*
X84690857Y-268659429D02*
X84545715Y-268586857D01*
X84473143Y-268441714D01*
X84473143Y-267135429D01*
X85924572Y-267643429D02*
X85924572Y-268659429D01*
X85271429Y-267643429D02*
X85271429Y-268441714D01*
X85344001Y-268586857D01*
X85489143Y-268659429D01*
X85706858Y-268659429D01*
X85852001Y-268586857D01*
X85924572Y-268514286D01*
X86577715Y-268586857D02*
X86722858Y-268659429D01*
X87013143Y-268659429D01*
X87158286Y-268586857D01*
X87230858Y-268441714D01*
X87230858Y-268369143D01*
X87158286Y-268224000D01*
X87013143Y-268151429D01*
X86795429Y-268151429D01*
X86650286Y-268078857D01*
X86577715Y-267933714D01*
X86577715Y-267861143D01*
X86650286Y-267716000D01*
X86795429Y-267643429D01*
X87013143Y-267643429D01*
X87158286Y-267716000D01*
X89843429Y-267208000D02*
X89698286Y-267135429D01*
X89480572Y-267135429D01*
X89262857Y-267208000D01*
X89117715Y-267353143D01*
X89045143Y-267498286D01*
X88972572Y-267788571D01*
X88972572Y-268006286D01*
X89045143Y-268296571D01*
X89117715Y-268441714D01*
X89262857Y-268586857D01*
X89480572Y-268659429D01*
X89625715Y-268659429D01*
X89843429Y-268586857D01*
X89916000Y-268514286D01*
X89916000Y-268006286D01*
X89625715Y-268006286D01*
X90569143Y-268659429D02*
X90569143Y-267643429D01*
X90569143Y-267933714D02*
X90641715Y-267788571D01*
X90714286Y-267716000D01*
X90859429Y-267643429D01*
X91004572Y-267643429D01*
X91512572Y-268659429D02*
X91512572Y-267643429D01*
X91512572Y-267135429D02*
X91440001Y-267208000D01*
X91512572Y-267280571D01*
X91585144Y-267208000D01*
X91512572Y-267135429D01*
X91512572Y-267280571D01*
X92891429Y-268659429D02*
X92891429Y-267135429D01*
X92891429Y-268586857D02*
X92746286Y-268659429D01*
X92456000Y-268659429D01*
X92310858Y-268586857D01*
X92238286Y-268514286D01*
X92165715Y-268369143D01*
X92165715Y-267933714D01*
X92238286Y-267788571D01*
X92310858Y-267716000D01*
X92456000Y-267643429D01*
X92746286Y-267643429D01*
X92891429Y-267716000D01*
X94560572Y-267135429D02*
X95068572Y-268659429D01*
X95576572Y-267135429D01*
X96374858Y-267135429D02*
X96520001Y-267135429D01*
X96665144Y-267208000D01*
X96737715Y-267280571D01*
X96810286Y-267425714D01*
X96882858Y-267716000D01*
X96882858Y-268078857D01*
X96810286Y-268369143D01*
X96737715Y-268514286D01*
X96665144Y-268586857D01*
X96520001Y-268659429D01*
X96374858Y-268659429D01*
X96229715Y-268586857D01*
X96157144Y-268514286D01*
X96084572Y-268369143D01*
X96012001Y-268078857D01*
X96012001Y-267716000D01*
X96084572Y-267425714D01*
X96157144Y-267280571D01*
X96229715Y-267208000D01*
X96374858Y-267135429D01*
X97536001Y-268514286D02*
X97608573Y-268586857D01*
X97536001Y-268659429D01*
X97463430Y-268586857D01*
X97536001Y-268514286D01*
X97536001Y-268659429D01*
X99060001Y-268659429D02*
X98189144Y-268659429D01*
X98624572Y-268659429D02*
X98624572Y-267135429D01*
X98479429Y-267353143D01*
X98334287Y-267498286D01*
X98189144Y-267570857D01*
X66330286Y-271199429D02*
X66330286Y-269675429D01*
X66693143Y-269675429D01*
X66910858Y-269748000D01*
X67056000Y-269893143D01*
X67128572Y-270038286D01*
X67201143Y-270328571D01*
X67201143Y-270546286D01*
X67128572Y-270836571D01*
X67056000Y-270981714D01*
X66910858Y-271126857D01*
X66693143Y-271199429D01*
X66330286Y-271199429D01*
X67854286Y-271199429D02*
X67854286Y-270183429D01*
X67854286Y-269675429D02*
X67781715Y-269748000D01*
X67854286Y-269820571D01*
X67926858Y-269748000D01*
X67854286Y-269675429D01*
X67854286Y-269820571D01*
X69233143Y-271126857D02*
X69088000Y-271199429D01*
X68797714Y-271199429D01*
X68652572Y-271126857D01*
X68580000Y-271054286D01*
X68507429Y-270909143D01*
X68507429Y-270473714D01*
X68580000Y-270328571D01*
X68652572Y-270256000D01*
X68797714Y-270183429D01*
X69088000Y-270183429D01*
X69233143Y-270256000D01*
X69886286Y-271199429D02*
X69886286Y-269675429D01*
X70031429Y-270618857D02*
X70466858Y-271199429D01*
X70466858Y-270183429D02*
X69886286Y-270764000D01*
X71120000Y-271199429D02*
X71120000Y-270183429D01*
X71120000Y-269675429D02*
X71047429Y-269748000D01*
X71120000Y-269820571D01*
X71192572Y-269748000D01*
X71120000Y-269675429D01*
X71120000Y-269820571D01*
X71845714Y-270183429D02*
X71845714Y-271199429D01*
X71845714Y-270328571D02*
X71918286Y-270256000D01*
X72063428Y-270183429D01*
X72281143Y-270183429D01*
X72426286Y-270256000D01*
X72498857Y-270401143D01*
X72498857Y-271199429D01*
X73152000Y-271126857D02*
X73297143Y-271199429D01*
X73587428Y-271199429D01*
X73732571Y-271126857D01*
X73805143Y-270981714D01*
X73805143Y-270909143D01*
X73732571Y-270764000D01*
X73587428Y-270691429D01*
X73369714Y-270691429D01*
X73224571Y-270618857D01*
X73152000Y-270473714D01*
X73152000Y-270401143D01*
X73224571Y-270256000D01*
X73369714Y-270183429D01*
X73587428Y-270183429D01*
X73732571Y-270256000D01*
X74675999Y-271199429D02*
X74530857Y-271126857D01*
X74458285Y-271054286D01*
X74385714Y-270909143D01*
X74385714Y-270473714D01*
X74458285Y-270328571D01*
X74530857Y-270256000D01*
X74675999Y-270183429D01*
X74893714Y-270183429D01*
X75038857Y-270256000D01*
X75111428Y-270328571D01*
X75183999Y-270473714D01*
X75183999Y-270909143D01*
X75111428Y-271054286D01*
X75038857Y-271126857D01*
X74893714Y-271199429D01*
X74675999Y-271199429D01*
X75837142Y-270183429D02*
X75837142Y-271199429D01*
X75837142Y-270328571D02*
X75909714Y-270256000D01*
X76054856Y-270183429D01*
X76272571Y-270183429D01*
X76417714Y-270256000D01*
X76490285Y-270401143D01*
X76490285Y-271199429D01*
X79102856Y-271199429D02*
X78377142Y-271199429D01*
X78377142Y-269675429D01*
X80263999Y-271199429D02*
X80263999Y-270401143D01*
X80191428Y-270256000D01*
X80046285Y-270183429D01*
X79755999Y-270183429D01*
X79610856Y-270256000D01*
X80263999Y-271126857D02*
X80118856Y-271199429D01*
X79755999Y-271199429D01*
X79610856Y-271126857D01*
X79538285Y-270981714D01*
X79538285Y-270836571D01*
X79610856Y-270691429D01*
X79755999Y-270618857D01*
X80118856Y-270618857D01*
X80263999Y-270546286D01*
X80989713Y-271199429D02*
X80989713Y-269675429D01*
X80989713Y-270256000D02*
X81134856Y-270183429D01*
X81425142Y-270183429D01*
X81570285Y-270256000D01*
X81642856Y-270328571D01*
X81715427Y-270473714D01*
X81715427Y-270909143D01*
X81642856Y-271054286D01*
X81570285Y-271126857D01*
X81425142Y-271199429D01*
X81134856Y-271199429D01*
X80989713Y-271126857D01*
X83457142Y-269820571D02*
X83529713Y-269748000D01*
X83674856Y-269675429D01*
X84037713Y-269675429D01*
X84182856Y-269748000D01*
X84255427Y-269820571D01*
X84327999Y-269965714D01*
X84327999Y-270110857D01*
X84255427Y-270328571D01*
X83384570Y-271199429D01*
X84327999Y-271199429D01*
X85271428Y-269675429D02*
X85416571Y-269675429D01*
X85561714Y-269748000D01*
X85634285Y-269820571D01*
X85706856Y-269965714D01*
X85779428Y-270256000D01*
X85779428Y-270618857D01*
X85706856Y-270909143D01*
X85634285Y-271054286D01*
X85561714Y-271126857D01*
X85416571Y-271199429D01*
X85271428Y-271199429D01*
X85126285Y-271126857D01*
X85053714Y-271054286D01*
X84981142Y-270909143D01*
X84908571Y-270618857D01*
X84908571Y-270256000D01*
X84981142Y-269965714D01*
X85053714Y-269820571D01*
X85126285Y-269748000D01*
X85271428Y-269675429D01*
X87230857Y-271199429D02*
X86360000Y-271199429D01*
X86795428Y-271199429D02*
X86795428Y-269675429D01*
X86650285Y-269893143D01*
X86505143Y-270038286D01*
X86360000Y-270110857D01*
X88101714Y-270328571D02*
X87956572Y-270256000D01*
X87884000Y-270183429D01*
X87811429Y-270038286D01*
X87811429Y-269965714D01*
X87884000Y-269820571D01*
X87956572Y-269748000D01*
X88101714Y-269675429D01*
X88392000Y-269675429D01*
X88537143Y-269748000D01*
X88609714Y-269820571D01*
X88682286Y-269965714D01*
X88682286Y-270038286D01*
X88609714Y-270183429D01*
X88537143Y-270256000D01*
X88392000Y-270328571D01*
X88101714Y-270328571D01*
X87956572Y-270401143D01*
X87884000Y-270473714D01*
X87811429Y-270618857D01*
X87811429Y-270909143D01*
X87884000Y-271054286D01*
X87956572Y-271126857D01*
X88101714Y-271199429D01*
X88392000Y-271199429D01*
X88537143Y-271126857D01*
X88609714Y-271054286D01*
X88682286Y-270909143D01*
X88682286Y-270618857D01*
X88609714Y-270473714D01*
X88537143Y-270401143D01*
X88392000Y-270328571D01*
D12*
X132080000Y-279146000D02*
X132080000Y-269494000D01*
X152400000Y-269494000D02*
X132080000Y-269494000D01*
X152400000Y-279146000D02*
X132080000Y-279146000D01*
X172720000Y-279146000D02*
X152400000Y-279146000D01*
X152400000Y-269494000D02*
X172720000Y-269494000D01*
X172720000Y-269494000D02*
X172720000Y-279146000D01*
X169461180Y-267020040D02*
X166458900Y-267020040D01*
X167924480Y-268831060D02*
X169448480Y-267053060D01*
X166400480Y-267055600D02*
X167924480Y-268833600D01*
D11*
X230124000Y-235521500D02*
X230124000Y-239649000D01*
X237998000Y-235521500D02*
X237998000Y-239649000D01*
X230124000Y-235521500D02*
X237998000Y-235521500D01*
X201676000Y-192151000D02*
X201676000Y-196278500D01*
X193802000Y-192151000D02*
X193802000Y-196278500D01*
X193802000Y-196278500D02*
X201676000Y-196278500D01*
X234315000Y-237490000D02*
X234315000Y-239268000D01*
X234315000Y-238379000D02*
X233108500Y-237617000D01*
X234315000Y-238442500D02*
X233108500Y-239204500D01*
X233108500Y-237680500D02*
X233108500Y-239141000D01*
X233108500Y-238379000D02*
X231648000Y-238379000D01*
X234442000Y-238379000D02*
X236093000Y-238379000D01*
X197421500Y-193421000D02*
X195770500Y-193421000D01*
X230124000Y-239649000D02*
X237998000Y-239649000D01*
X198691500Y-193421000D02*
X200152000Y-193421000D01*
X198691500Y-192722500D02*
X198691500Y-194183000D01*
X197485000Y-193484500D02*
X198691500Y-194246500D01*
X197485000Y-193421000D02*
X198691500Y-192659000D01*
X197485000Y-192532000D02*
X197485000Y-194310000D01*
X193802000Y-192151000D02*
X201676000Y-192151000D01*
X230124000Y-172021500D02*
X230124000Y-176149000D01*
X237998000Y-172021500D02*
X237998000Y-176149000D01*
X230124000Y-172021500D02*
X237998000Y-172021500D01*
X201676000Y-128651000D02*
X201676000Y-132778500D01*
X193802000Y-128651000D02*
X193802000Y-132778500D01*
X193802000Y-132778500D02*
X201676000Y-132778500D01*
X234315000Y-173990000D02*
X234315000Y-175768000D01*
X234315000Y-174879000D02*
X233108500Y-174117000D01*
X234315000Y-174942500D02*
X233108500Y-175704500D01*
X233108500Y-174180500D02*
X233108500Y-175641000D01*
X233108500Y-174879000D02*
X231648000Y-174879000D01*
X234442000Y-174879000D02*
X236093000Y-174879000D01*
X197421500Y-129921000D02*
X195770500Y-129921000D01*
X230124000Y-176149000D02*
X237998000Y-176149000D01*
X198691500Y-129921000D02*
X200152000Y-129921000D01*
X198691500Y-129222500D02*
X198691500Y-130683000D01*
X197485000Y-129984500D02*
X198691500Y-130746500D01*
X197485000Y-129921000D02*
X198691500Y-129159000D01*
X197485000Y-129032000D02*
X197485000Y-130810000D01*
X193802000Y-128651000D02*
X201676000Y-128651000D01*
X230124000Y-108521500D02*
X230124000Y-112649000D01*
X237998000Y-108521500D02*
X237998000Y-112649000D01*
X230124000Y-108521500D02*
X237998000Y-108521500D01*
X201676000Y-65151000D02*
X201676000Y-69278500D01*
X193802000Y-65151000D02*
X193802000Y-69278500D01*
X193802000Y-69278500D02*
X201676000Y-69278500D01*
X234315000Y-110490000D02*
X234315000Y-112268000D01*
X234315000Y-111379000D02*
X233108500Y-110617000D01*
X234315000Y-111442500D02*
X233108500Y-112204500D01*
X233108500Y-110680500D02*
X233108500Y-112141000D01*
X233108500Y-111379000D02*
X231648000Y-111379000D01*
X234442000Y-111379000D02*
X236093000Y-111379000D01*
X197421500Y-66421000D02*
X195770500Y-66421000D01*
X230124000Y-112649000D02*
X237998000Y-112649000D01*
X198691500Y-66421000D02*
X200152000Y-66421000D01*
X198691500Y-65722500D02*
X198691500Y-67183000D01*
X197485000Y-66484500D02*
X198691500Y-67246500D01*
X197485000Y-66421000D02*
X198691500Y-65659000D01*
X197485000Y-65532000D02*
X197485000Y-67310000D01*
X193802000Y-65151000D02*
X201676000Y-65151000D01*
X166624000Y-235521500D02*
X166624000Y-239649000D01*
X174498000Y-235521500D02*
X174498000Y-239649000D01*
X166624000Y-235521500D02*
X174498000Y-235521500D01*
X138176000Y-192151000D02*
X138176000Y-196278500D01*
X130302000Y-192151000D02*
X130302000Y-196278500D01*
X130302000Y-196278500D02*
X138176000Y-196278500D01*
X170815000Y-237490000D02*
X170815000Y-239268000D01*
X170815000Y-238379000D02*
X169608500Y-237617000D01*
X170815000Y-238442500D02*
X169608500Y-239204500D01*
X169608500Y-237680500D02*
X169608500Y-239141000D01*
X169608500Y-238379000D02*
X168148000Y-238379000D01*
X170942000Y-238379000D02*
X172593000Y-238379000D01*
X133921500Y-193421000D02*
X132270500Y-193421000D01*
X166624000Y-239649000D02*
X174498000Y-239649000D01*
X135191500Y-193421000D02*
X136652000Y-193421000D01*
X135191500Y-192722500D02*
X135191500Y-194183000D01*
X133985000Y-193484500D02*
X135191500Y-194246500D01*
X133985000Y-193421000D02*
X135191500Y-192659000D01*
X133985000Y-192532000D02*
X133985000Y-194310000D01*
X130302000Y-192151000D02*
X138176000Y-192151000D01*
X166624000Y-172021500D02*
X166624000Y-176149000D01*
X174498000Y-172021500D02*
X174498000Y-176149000D01*
X166624000Y-172021500D02*
X174498000Y-172021500D01*
X138176000Y-128651000D02*
X138176000Y-132778500D01*
X130302000Y-128651000D02*
X130302000Y-132778500D01*
X130302000Y-132778500D02*
X138176000Y-132778500D01*
X170815000Y-173990000D02*
X170815000Y-175768000D01*
X170815000Y-174879000D02*
X169608500Y-174117000D01*
X170815000Y-174942500D02*
X169608500Y-175704500D01*
X169608500Y-174180500D02*
X169608500Y-175641000D01*
X169608500Y-174879000D02*
X168148000Y-174879000D01*
X170942000Y-174879000D02*
X172593000Y-174879000D01*
X133921500Y-129921000D02*
X132270500Y-129921000D01*
X166624000Y-176149000D02*
X174498000Y-176149000D01*
X135191500Y-129921000D02*
X136652000Y-129921000D01*
X135191500Y-129222500D02*
X135191500Y-130683000D01*
X133985000Y-129984500D02*
X135191500Y-130746500D01*
X133985000Y-129921000D02*
X135191500Y-129159000D01*
X133985000Y-129032000D02*
X133985000Y-130810000D01*
X130302000Y-128651000D02*
X138176000Y-128651000D01*
X166624000Y-108521500D02*
X166624000Y-112649000D01*
X174498000Y-108521500D02*
X174498000Y-112649000D01*
X166624000Y-108521500D02*
X174498000Y-108521500D01*
X138176000Y-65151000D02*
X138176000Y-69278500D01*
X130302000Y-65151000D02*
X130302000Y-69278500D01*
X130302000Y-69278500D02*
X138176000Y-69278500D01*
X170815000Y-110490000D02*
X170815000Y-112268000D01*
X170815000Y-111379000D02*
X169608500Y-110617000D01*
X170815000Y-111442500D02*
X169608500Y-112204500D01*
X169608500Y-110680500D02*
X169608500Y-112141000D01*
X169608500Y-111379000D02*
X168148000Y-111379000D01*
X170942000Y-111379000D02*
X172593000Y-111379000D01*
X133921500Y-66421000D02*
X132270500Y-66421000D01*
X166624000Y-112649000D02*
X174498000Y-112649000D01*
X135191500Y-66421000D02*
X136652000Y-66421000D01*
X135191500Y-65722500D02*
X135191500Y-67183000D01*
X133985000Y-66484500D02*
X135191500Y-67246500D01*
X133985000Y-66421000D02*
X135191500Y-65659000D01*
X133985000Y-65532000D02*
X133985000Y-67310000D01*
X130302000Y-65151000D02*
X138176000Y-65151000D01*
X103124000Y-235521500D02*
X103124000Y-239649000D01*
X110998000Y-235521500D02*
X110998000Y-239649000D01*
X103124000Y-235521500D02*
X110998000Y-235521500D01*
X74676000Y-192151000D02*
X74676000Y-196278500D01*
X66802000Y-192151000D02*
X66802000Y-196278500D01*
X66802000Y-196278500D02*
X74676000Y-196278500D01*
X107315000Y-237490000D02*
X107315000Y-239268000D01*
X107315000Y-238379000D02*
X106108500Y-237617000D01*
X107315000Y-238442500D02*
X106108500Y-239204500D01*
X106108500Y-237680500D02*
X106108500Y-239141000D01*
X106108500Y-238379000D02*
X104648000Y-238379000D01*
X107442000Y-238379000D02*
X109093000Y-238379000D01*
X70421500Y-193421000D02*
X68770500Y-193421000D01*
X103124000Y-239649000D02*
X110998000Y-239649000D01*
X71691500Y-193421000D02*
X73152000Y-193421000D01*
X71691500Y-192722500D02*
X71691500Y-194183000D01*
X70485000Y-193484500D02*
X71691500Y-194246500D01*
X70485000Y-193421000D02*
X71691500Y-192659000D01*
X70485000Y-192532000D02*
X70485000Y-194310000D01*
X66802000Y-192151000D02*
X74676000Y-192151000D01*
X103124000Y-172021500D02*
X103124000Y-176149000D01*
X110998000Y-172021500D02*
X110998000Y-176149000D01*
X103124000Y-172021500D02*
X110998000Y-172021500D01*
X74676000Y-128651000D02*
X74676000Y-132778500D01*
X66802000Y-128651000D02*
X66802000Y-132778500D01*
X66802000Y-132778500D02*
X74676000Y-132778500D01*
X107315000Y-173990000D02*
X107315000Y-175768000D01*
X107315000Y-174879000D02*
X106108500Y-174117000D01*
X107315000Y-174942500D02*
X106108500Y-175704500D01*
X106108500Y-174180500D02*
X106108500Y-175641000D01*
X106108500Y-174879000D02*
X104648000Y-174879000D01*
X107442000Y-174879000D02*
X109093000Y-174879000D01*
X70421500Y-129921000D02*
X68770500Y-129921000D01*
X103124000Y-176149000D02*
X110998000Y-176149000D01*
X71691500Y-129921000D02*
X73152000Y-129921000D01*
X71691500Y-129222500D02*
X71691500Y-130683000D01*
X70485000Y-129984500D02*
X71691500Y-130746500D01*
X70485000Y-129921000D02*
X71691500Y-129159000D01*
X70485000Y-129032000D02*
X70485000Y-130810000D01*
X66802000Y-128651000D02*
X74676000Y-128651000D01*
X103124000Y-108521500D02*
X103124000Y-112649000D01*
X110998000Y-108521500D02*
X110998000Y-112649000D01*
X103124000Y-108521500D02*
X110998000Y-108521500D01*
X74676000Y-65151000D02*
X74676000Y-69278500D01*
X66802000Y-65151000D02*
X66802000Y-69278500D01*
X66802000Y-69278500D02*
X74676000Y-69278500D01*
X107315000Y-110490000D02*
X107315000Y-112268000D01*
X107315000Y-111379000D02*
X106108500Y-110617000D01*
X107315000Y-111442500D02*
X106108500Y-112204500D01*
X106108500Y-110680500D02*
X106108500Y-112141000D01*
X106108500Y-111379000D02*
X104648000Y-111379000D01*
X107442000Y-111379000D02*
X109093000Y-111379000D01*
X70421500Y-66421000D02*
X68770500Y-66421000D01*
X103124000Y-112649000D02*
X110998000Y-112649000D01*
X71691500Y-66421000D02*
X73152000Y-66421000D01*
X71691500Y-65722500D02*
X71691500Y-67183000D01*
X70485000Y-66484500D02*
X71691500Y-67246500D01*
X70485000Y-66421000D02*
X71691500Y-65659000D01*
X70485000Y-65532000D02*
X70485000Y-67310000D01*
X66802000Y-65151000D02*
X74676000Y-65151000D01*
D13*
X130022600Y-273561629D02*
X130022600Y-274650200D01*
X129950028Y-274867914D01*
X129804885Y-275013057D01*
X129587171Y-275085629D01*
X129442028Y-275085629D01*
X131546600Y-275085629D02*
X130675743Y-275085629D01*
X131111171Y-275085629D02*
X131111171Y-273561629D01*
X130966028Y-273779343D01*
X130820886Y-273924486D01*
X130675743Y-273997057D01*
D11*
X136192381Y-277047476D02*
X136252857Y-276987000D01*
X136373809Y-276926524D01*
X136676190Y-276926524D01*
X136797143Y-276987000D01*
X136857619Y-277047476D01*
X136918095Y-277168429D01*
X136918095Y-277289381D01*
X136857619Y-277470810D01*
X136131905Y-278196524D01*
X136918095Y-278196524D01*
X138006667Y-276926524D02*
X137764762Y-276926524D01*
X137643810Y-276987000D01*
X137583333Y-277047476D01*
X137462381Y-277228905D01*
X137401905Y-277470810D01*
X137401905Y-277954619D01*
X137462381Y-278075571D01*
X137522857Y-278136048D01*
X137643810Y-278196524D01*
X137885714Y-278196524D01*
X138006667Y-278136048D01*
X138067143Y-278075571D01*
X138127619Y-277954619D01*
X138127619Y-277652238D01*
X138067143Y-277531286D01*
X138006667Y-277470810D01*
X137885714Y-277410333D01*
X137643810Y-277410333D01*
X137522857Y-277470810D01*
X137462381Y-277531286D01*
X137401905Y-277652238D01*
X136192381Y-270443476D02*
X136252857Y-270383000D01*
X136373809Y-270322524D01*
X136676190Y-270322524D01*
X136797143Y-270383000D01*
X136857619Y-270443476D01*
X136918095Y-270564429D01*
X136918095Y-270685381D01*
X136857619Y-270866810D01*
X136131905Y-271592524D01*
X136918095Y-271592524D01*
X138067143Y-270322524D02*
X137462381Y-270322524D01*
X137401905Y-270927286D01*
X137462381Y-270866810D01*
X137583333Y-270806333D01*
X137885714Y-270806333D01*
X138006667Y-270866810D01*
X138067143Y-270927286D01*
X138127619Y-271048238D01*
X138127619Y-271350619D01*
X138067143Y-271471571D01*
X138006667Y-271532048D01*
X137885714Y-271592524D01*
X137583333Y-271592524D01*
X137462381Y-271532048D01*
X137401905Y-271471571D01*
X167297463Y-276945876D02*
X167357939Y-276885400D01*
X167478891Y-276824924D01*
X167781272Y-276824924D01*
X167902225Y-276885400D01*
X167962701Y-276945876D01*
X168023177Y-277066829D01*
X168023177Y-277187781D01*
X167962701Y-277369210D01*
X167236987Y-278094924D01*
X168023177Y-278094924D01*
D14*
X203209072Y-196242214D02*
X203209072Y-195480214D01*
X203390500Y-195480214D01*
X203499357Y-195516500D01*
X203571929Y-195589071D01*
X203608214Y-195661643D01*
X203644500Y-195806786D01*
X203644500Y-195915643D01*
X203608214Y-196060786D01*
X203571929Y-196133357D01*
X203499357Y-196205929D01*
X203390500Y-196242214D01*
X203209072Y-196242214D01*
X204007357Y-196242214D02*
X204152500Y-196242214D01*
X204225072Y-196205929D01*
X204261357Y-196169643D01*
X204333929Y-196060786D01*
X204370214Y-195915643D01*
X204370214Y-195625357D01*
X204333929Y-195552786D01*
X204297643Y-195516500D01*
X204225072Y-195480214D01*
X204079929Y-195480214D01*
X204007357Y-195516500D01*
X203971072Y-195552786D01*
X203934786Y-195625357D01*
X203934786Y-195806786D01*
X203971072Y-195879357D01*
X204007357Y-195915643D01*
X204079929Y-195951929D01*
X204225072Y-195951929D01*
X204297643Y-195915643D01*
X204333929Y-195879357D01*
X204370214Y-195806786D01*
X203209072Y-132742214D02*
X203209072Y-131980214D01*
X203390500Y-131980214D01*
X203499357Y-132016500D01*
X203571929Y-132089071D01*
X203608214Y-132161643D01*
X203644500Y-132306786D01*
X203644500Y-132415643D01*
X203608214Y-132560786D01*
X203571929Y-132633357D01*
X203499357Y-132705929D01*
X203390500Y-132742214D01*
X203209072Y-132742214D01*
X204079929Y-132306786D02*
X204007357Y-132270500D01*
X203971072Y-132234214D01*
X203934786Y-132161643D01*
X203934786Y-132125357D01*
X203971072Y-132052786D01*
X204007357Y-132016500D01*
X204079929Y-131980214D01*
X204225072Y-131980214D01*
X204297643Y-132016500D01*
X204333929Y-132052786D01*
X204370214Y-132125357D01*
X204370214Y-132161643D01*
X204333929Y-132234214D01*
X204297643Y-132270500D01*
X204225072Y-132306786D01*
X204079929Y-132306786D01*
X204007357Y-132343071D01*
X203971072Y-132379357D01*
X203934786Y-132451929D01*
X203934786Y-132597071D01*
X203971072Y-132669643D01*
X204007357Y-132705929D01*
X204079929Y-132742214D01*
X204225072Y-132742214D01*
X204297643Y-132705929D01*
X204333929Y-132669643D01*
X204370214Y-132597071D01*
X204370214Y-132451929D01*
X204333929Y-132379357D01*
X204297643Y-132343071D01*
X204225072Y-132306786D01*
X203209072Y-69242214D02*
X203209072Y-68480214D01*
X203390500Y-68480214D01*
X203499357Y-68516500D01*
X203571929Y-68589071D01*
X203608214Y-68661643D01*
X203644500Y-68806786D01*
X203644500Y-68915643D01*
X203608214Y-69060786D01*
X203571929Y-69133357D01*
X203499357Y-69205929D01*
X203390500Y-69242214D01*
X203209072Y-69242214D01*
X203898500Y-68480214D02*
X204406500Y-68480214D01*
X204079929Y-69242214D01*
X139709072Y-196242214D02*
X139709072Y-195480214D01*
X139890500Y-195480214D01*
X139999357Y-195516500D01*
X140071929Y-195589071D01*
X140108214Y-195661643D01*
X140144500Y-195806786D01*
X140144500Y-195915643D01*
X140108214Y-196060786D01*
X140071929Y-196133357D01*
X139999357Y-196205929D01*
X139890500Y-196242214D01*
X139709072Y-196242214D01*
X140797643Y-195480214D02*
X140652500Y-195480214D01*
X140579929Y-195516500D01*
X140543643Y-195552786D01*
X140471072Y-195661643D01*
X140434786Y-195806786D01*
X140434786Y-196097071D01*
X140471072Y-196169643D01*
X140507357Y-196205929D01*
X140579929Y-196242214D01*
X140725072Y-196242214D01*
X140797643Y-196205929D01*
X140833929Y-196169643D01*
X140870214Y-196097071D01*
X140870214Y-195915643D01*
X140833929Y-195843071D01*
X140797643Y-195806786D01*
X140725072Y-195770500D01*
X140579929Y-195770500D01*
X140507357Y-195806786D01*
X140471072Y-195843071D01*
X140434786Y-195915643D01*
X139709072Y-132742214D02*
X139709072Y-131980214D01*
X139890500Y-131980214D01*
X139999357Y-132016500D01*
X140071929Y-132089071D01*
X140108214Y-132161643D01*
X140144500Y-132306786D01*
X140144500Y-132415643D01*
X140108214Y-132560786D01*
X140071929Y-132633357D01*
X139999357Y-132705929D01*
X139890500Y-132742214D01*
X139709072Y-132742214D01*
X140833929Y-131980214D02*
X140471072Y-131980214D01*
X140434786Y-132343071D01*
X140471072Y-132306786D01*
X140543643Y-132270500D01*
X140725072Y-132270500D01*
X140797643Y-132306786D01*
X140833929Y-132343071D01*
X140870214Y-132415643D01*
X140870214Y-132597071D01*
X140833929Y-132669643D01*
X140797643Y-132705929D01*
X140725072Y-132742214D01*
X140543643Y-132742214D01*
X140471072Y-132705929D01*
X140434786Y-132669643D01*
X139709072Y-69242214D02*
X139709072Y-68480214D01*
X139890500Y-68480214D01*
X139999357Y-68516500D01*
X140071929Y-68589071D01*
X140108214Y-68661643D01*
X140144500Y-68806786D01*
X140144500Y-68915643D01*
X140108214Y-69060786D01*
X140071929Y-69133357D01*
X139999357Y-69205929D01*
X139890500Y-69242214D01*
X139709072Y-69242214D01*
X140797643Y-68734214D02*
X140797643Y-69242214D01*
X140616214Y-68443929D02*
X140434786Y-68988214D01*
X140906500Y-68988214D01*
X76209072Y-196242214D02*
X76209072Y-195480214D01*
X76390500Y-195480214D01*
X76499357Y-195516500D01*
X76571929Y-195589071D01*
X76608214Y-195661643D01*
X76644500Y-195806786D01*
X76644500Y-195915643D01*
X76608214Y-196060786D01*
X76571929Y-196133357D01*
X76499357Y-196205929D01*
X76390500Y-196242214D01*
X76209072Y-196242214D01*
X76898500Y-195480214D02*
X77370214Y-195480214D01*
X77116214Y-195770500D01*
X77225072Y-195770500D01*
X77297643Y-195806786D01*
X77333929Y-195843071D01*
X77370214Y-195915643D01*
X77370214Y-196097071D01*
X77333929Y-196169643D01*
X77297643Y-196205929D01*
X77225072Y-196242214D01*
X77007357Y-196242214D01*
X76934786Y-196205929D01*
X76898500Y-196169643D01*
X76209072Y-132742214D02*
X76209072Y-131980214D01*
X76390500Y-131980214D01*
X76499357Y-132016500D01*
X76571929Y-132089071D01*
X76608214Y-132161643D01*
X76644500Y-132306786D01*
X76644500Y-132415643D01*
X76608214Y-132560786D01*
X76571929Y-132633357D01*
X76499357Y-132705929D01*
X76390500Y-132742214D01*
X76209072Y-132742214D01*
X76934786Y-132052786D02*
X76971072Y-132016500D01*
X77043643Y-131980214D01*
X77225072Y-131980214D01*
X77297643Y-132016500D01*
X77333929Y-132052786D01*
X77370214Y-132125357D01*
X77370214Y-132197929D01*
X77333929Y-132306786D01*
X76898500Y-132742214D01*
X77370214Y-132742214D01*
X76209072Y-69242214D02*
X76209072Y-68480214D01*
X76390500Y-68480214D01*
X76499357Y-68516500D01*
X76571929Y-68589071D01*
X76608214Y-68661643D01*
X76644500Y-68806786D01*
X76644500Y-68915643D01*
X76608214Y-69060786D01*
X76571929Y-69133357D01*
X76499357Y-69205929D01*
X76390500Y-69242214D01*
X76209072Y-69242214D01*
X77370214Y-69242214D02*
X76934786Y-69242214D01*
X77152500Y-69242214D02*
X77152500Y-68480214D01*
X77079929Y-68589071D01*
X77007357Y-68661643D01*
X76934786Y-68697929D01*
M02*
