G04 #@! TF.FileFunction,Profile,NP*
%FSLAX46Y46*%
G04 Gerber Fmt 4.6, Leading zero omitted, Abs format (unit mm)*
G04 Created by KiCad (PCBNEW 4.0.7-e2-6376~58~ubuntu16.04.1) date Wed Nov 28 15:41:44 2018*
%MOMM*%
%LPD*%
G01*
G04 APERTURE LIST*
%ADD10C,0.100000*%
%ADD11C,0.254000*%
G04 APERTURE END LIST*
D10*
D11*
X196342000Y-235458000D02*
X196342000Y-196342000D01*
X235458000Y-235458000D02*
X196342000Y-235458000D01*
X235458000Y-196342000D02*
X235458000Y-235458000D01*
X196342000Y-196342000D02*
X235458000Y-196342000D01*
X132842000Y-235458000D02*
X132842000Y-196342000D01*
X171958000Y-235458000D02*
X132842000Y-235458000D01*
X171958000Y-196342000D02*
X171958000Y-235458000D01*
X132842000Y-196342000D02*
X171958000Y-196342000D01*
X69342000Y-235458000D02*
X69342000Y-196342000D01*
X108458000Y-235458000D02*
X69342000Y-235458000D01*
X108458000Y-196342000D02*
X108458000Y-235458000D01*
X69342000Y-196342000D02*
X108458000Y-196342000D01*
X196342000Y-171958000D02*
X196342000Y-132842000D01*
X235458000Y-171958000D02*
X196342000Y-171958000D01*
X235458000Y-132842000D02*
X235458000Y-171958000D01*
X196342000Y-132842000D02*
X235458000Y-132842000D01*
X132842000Y-171958000D02*
X132842000Y-132842000D01*
X171958000Y-171958000D02*
X132842000Y-171958000D01*
X171958000Y-132842000D02*
X171958000Y-171958000D01*
X132842000Y-132842000D02*
X171958000Y-132842000D01*
X69342000Y-171958000D02*
X69342000Y-132842000D01*
X108458000Y-171958000D02*
X69342000Y-171958000D01*
X108458000Y-132842000D02*
X108458000Y-171958000D01*
X69342000Y-132842000D02*
X108458000Y-132842000D01*
X196342000Y-108458000D02*
X196342000Y-69342000D01*
X235458000Y-108458000D02*
X196342000Y-108458000D01*
X235458000Y-69342000D02*
X235458000Y-108458000D01*
X196342000Y-69342000D02*
X235458000Y-69342000D01*
X132842000Y-108458000D02*
X132842000Y-69342000D01*
X171958000Y-108458000D02*
X132842000Y-108458000D01*
X171958000Y-69342000D02*
X171958000Y-108458000D01*
X132842000Y-69342000D02*
X171958000Y-69342000D01*
X69342000Y-108458000D02*
X69342000Y-69342000D01*
X108458000Y-108458000D02*
X69342000Y-108458000D01*
X108458000Y-69342000D02*
X108458000Y-108458000D01*
X69342000Y-69342000D02*
X108458000Y-69342000D01*
X276860000Y-25400000D02*
X27940000Y-25400000D01*
X279400000Y-276860000D02*
X279400000Y-27940000D01*
X27940000Y-279400000D02*
X276860000Y-279400000D01*
X25400000Y-27940000D02*
X25400000Y-276860000D01*
X25400000Y-276860000D02*
G75*
G03X27940000Y-279400000I2540000J0D01*
G01*
X276860000Y-279400000D02*
G75*
G03X279400000Y-276860000I0J2540000D01*
G01*
X279400000Y-27940000D02*
G75*
G03X276860000Y-25400000I-2540000J0D01*
G01*
X27940000Y-25400000D02*
G75*
G03X25400000Y-27940000I0J-2540000D01*
G01*
M02*
