M48
;DRILL file {KiCad 4.0.7-e2-6376~58~ubuntu16.04.1} date Wed Nov 28 15:41:50 2018
;FORMAT={-:-/ absolute / inch / decimal}
FMAT,2
INCH,TZ
T1C0.016
T2C0.025
T3C0.040
T4C0.257
%
G90
G05
M72
T1
X4.9347Y-9.3311
X5.0167Y-9.4534
X5.0532Y-9.3334
X5.0578Y-9.4106
X5.1004Y-9.5712
X5.1416Y-9.6564
X5.6128Y-10.1549
X6.3285Y-10.4071
X6.815Y-9.6934
X6.8755Y-9.5305
X7.477Y-7.8375
X7.5002Y-6.7864
X7.5645Y-7.6082
T3
X5.4Y-10.75
X5.4Y-10.85
X5.5Y-10.75
X5.5Y-10.85
X5.6Y-10.75
X5.6Y-10.85
X5.7Y-10.75
X5.7Y-10.85
X5.8Y-10.75
X5.8Y-10.85
X5.9Y-10.75
X5.9Y-10.85
X6.Y-10.75
X6.Y-10.85
X6.1Y-10.75
X6.1Y-10.85
X6.2Y-10.75
X6.2Y-10.85
X6.3Y-10.75
X6.3Y-10.85
X6.4Y-10.75
X6.4Y-10.85
X6.5Y-10.75
X6.5Y-10.85
X6.6Y-10.75
X6.6Y-10.85
T4
X1.5Y-1.5
X1.5Y-10.5
X10.5Y-1.5
X10.5Y-10.5
T2
X2.665Y-2.685G85X2.705Y-2.685
G05
X2.665Y-5.185G85X2.705Y-5.185
G05
X2.665Y-7.685G85X2.705Y-7.685
G05
X2.865Y-2.685G85X2.905Y-2.685
G05
X2.865Y-5.185G85X2.905Y-5.185
G05
X2.865Y-7.685G85X2.905Y-7.685
G05
X4.095Y-4.315G85X4.135Y-4.315
G05
X4.095Y-6.815G85X4.135Y-6.815
G05
X4.095Y-9.315G85X4.135Y-9.315
G05
X4.295Y-4.315G85X4.335Y-4.315
G05
X4.295Y-6.815G85X4.335Y-6.815
G05
X4.295Y-9.315G85X4.335Y-9.315
G05
X5.165Y-2.685G85X5.205Y-2.685
G05
X5.165Y-5.185G85X5.205Y-5.185
G05
X5.165Y-7.685G85X5.205Y-7.685
G05
X5.365Y-2.685G85X5.405Y-2.685
G05
X5.365Y-5.185G85X5.405Y-5.185
G05
X5.365Y-7.685G85X5.405Y-7.685
G05
X6.595Y-4.315G85X6.635Y-4.315
G05
X6.595Y-6.815G85X6.635Y-6.815
G05
X6.595Y-9.315G85X6.635Y-9.315
G05
X6.795Y-4.315G85X6.835Y-4.315
G05
X6.795Y-6.815G85X6.835Y-6.815
G05
X6.795Y-9.315G85X6.835Y-9.315
G05
X7.665Y-2.685G85X7.705Y-2.685
G05
X7.665Y-5.185G85X7.705Y-5.185
G05
X7.665Y-7.685G85X7.705Y-7.685
G05
X7.865Y-2.685G85X7.905Y-2.685
G05
X7.865Y-5.185G85X7.905Y-5.185
G05
X7.865Y-7.685G85X7.905Y-7.685
G05
X9.095Y-4.315G85X9.135Y-4.315
G05
X9.095Y-6.815G85X9.135Y-6.815
G05
X9.095Y-9.315G85X9.135Y-9.315
G05
X9.295Y-4.315G85X9.335Y-4.315
G05
X9.295Y-6.815G85X9.335Y-6.815
G05
X9.295Y-9.315G85X9.335Y-9.315
G05
T0
M30
