G04 #@! TF.FileFunction,Copper,L1,Top,Signal*
%FSLAX46Y46*%
G04 Gerber Fmt 4.6, Leading zero omitted, Abs format (unit mm)*
G04 Created by KiCad (PCBNEW 4.0.7-e2-6376~58~ubuntu16.04.1) date Wed Nov 28 15:41:44 2018*
%MOMM*%
%LPD*%
G01*
G04 APERTURE LIST*
%ADD10C,0.100000*%
%ADD11C,7.289800*%
%ADD12R,1.778000X1.778000*%
%ADD13C,1.778000*%
%ADD14R,2.032000X1.270000*%
%ADD15O,2.286000X1.270000*%
%ADD16C,0.600000*%
%ADD17C,0.381000*%
%ADD18C,0.635000*%
G04 APERTURE END LIST*
D10*
D11*
X38100000Y-38100000D03*
X266700000Y-38100000D03*
X266700000Y-266700000D03*
X38100000Y-266700000D03*
D12*
X167640000Y-273050000D03*
D13*
X167640000Y-275590000D03*
X165100000Y-273050000D03*
X165100000Y-275590000D03*
X162560000Y-273050000D03*
X162560000Y-275590000D03*
X160020000Y-273050000D03*
X160020000Y-275590000D03*
X157480000Y-273050000D03*
X157480000Y-275590000D03*
X154940000Y-273050000D03*
X154940000Y-275590000D03*
X152400000Y-273050000D03*
X152400000Y-275590000D03*
X149860000Y-273050000D03*
X149860000Y-275590000D03*
X147320000Y-273050000D03*
X147320000Y-275590000D03*
X144780000Y-273050000D03*
X144780000Y-275590000D03*
X142240000Y-273050000D03*
X142240000Y-275590000D03*
X139700000Y-273050000D03*
X139700000Y-275590000D03*
X137160000Y-273050000D03*
X137160000Y-275590000D03*
D14*
X195199000Y-195199000D03*
D15*
X200279000Y-195199000D03*
X231521000Y-236601000D03*
X236601000Y-236601000D03*
D14*
X195199000Y-131699000D03*
D15*
X200279000Y-131699000D03*
X231521000Y-173101000D03*
X236601000Y-173101000D03*
D14*
X195199000Y-68199000D03*
D15*
X200279000Y-68199000D03*
X231521000Y-109601000D03*
X236601000Y-109601000D03*
D14*
X131699000Y-195199000D03*
D15*
X136779000Y-195199000D03*
X168021000Y-236601000D03*
X173101000Y-236601000D03*
D14*
X131699000Y-131699000D03*
D15*
X136779000Y-131699000D03*
X168021000Y-173101000D03*
X173101000Y-173101000D03*
D14*
X131699000Y-68199000D03*
D15*
X136779000Y-68199000D03*
X168021000Y-109601000D03*
X173101000Y-109601000D03*
D14*
X68199000Y-195199000D03*
D15*
X73279000Y-195199000D03*
X104521000Y-236601000D03*
X109601000Y-236601000D03*
D14*
X68199000Y-131699000D03*
D15*
X73279000Y-131699000D03*
X104521000Y-173101000D03*
X109601000Y-173101000D03*
D14*
X68199000Y-68199000D03*
D15*
X73279000Y-68199000D03*
X104521000Y-109601000D03*
X109601000Y-109601000D03*
D16*
X128468700Y-239029500D03*
X128350300Y-237068600D03*
X127425400Y-240117200D03*
X125341100Y-237011000D03*
X160744600Y-264339500D03*
X129550900Y-243109300D03*
X174638000Y-242074000D03*
X142565600Y-257933600D03*
X173101000Y-246211700D03*
X130595400Y-245272500D03*
X192138200Y-193249000D03*
X190505200Y-172374400D03*
X189916000Y-199073400D03*
D17*
X133619500Y-239029500D02*
X167640000Y-273050000D01*
X128468700Y-239029500D02*
X133619500Y-239029500D01*
D18*
X73279000Y-68199000D02*
X74943000Y-68199000D01*
X136779000Y-68199000D02*
X135115000Y-68199000D01*
X168021000Y-236601000D02*
X169685000Y-236601000D01*
X231521000Y-236601000D02*
X229857000Y-236601000D01*
X224041000Y-109601000D02*
X201943000Y-131699000D01*
X231521000Y-109601000D02*
X224041000Y-109601000D01*
X200279000Y-131699000D02*
X201943000Y-131699000D01*
X73279000Y-131699000D02*
X74943000Y-131699000D01*
X73279000Y-195199000D02*
X74943000Y-195199000D01*
X136779000Y-195199000D02*
X135115000Y-195199000D01*
X97041000Y-173101000D02*
X104521000Y-173101000D01*
X74943000Y-195199000D02*
X97041000Y-173101000D01*
X104521000Y-173101000D02*
X106185000Y-173101000D01*
X97041000Y-109601000D02*
X104521000Y-109601000D01*
X74943000Y-131699000D02*
X97041000Y-109601000D01*
X104521000Y-109601000D02*
X106185000Y-109601000D01*
X207759000Y-195199000D02*
X200279000Y-195199000D01*
X229857000Y-173101000D02*
X207759000Y-195199000D01*
X231521000Y-173101000D02*
X229857000Y-173101000D01*
X168021000Y-109601000D02*
X169685000Y-109601000D01*
X200279000Y-131699000D02*
X198615000Y-131699000D01*
X200279000Y-68199000D02*
X198615000Y-68199000D01*
X170881000Y-110797000D02*
X178181000Y-110797000D01*
X169685000Y-109601000D02*
X170881000Y-110797000D01*
X178181000Y-111265000D02*
X178181000Y-110797000D01*
X198615000Y-131699000D02*
X178181000Y-111265000D01*
X197459000Y-67043000D02*
X198615000Y-68199000D01*
X193953500Y-67043000D02*
X197459000Y-67043000D01*
X178181000Y-82815500D02*
X193953500Y-67043000D01*
X178181000Y-110797000D02*
X178181000Y-82815500D01*
X136779000Y-131699000D02*
X135115000Y-131699000D01*
X74943000Y-68199000D02*
X113497400Y-68199000D01*
X133959000Y-67043000D02*
X135115000Y-68199000D01*
X114653400Y-67043000D02*
X133959000Y-67043000D01*
X113497400Y-68199000D02*
X114653400Y-67043000D01*
X113497400Y-110081400D02*
X112821100Y-110757700D01*
X113497400Y-68199000D02*
X113497400Y-110081400D01*
X107341700Y-110757700D02*
X106185000Y-109601000D01*
X112821100Y-110757700D02*
X107341700Y-110757700D01*
X131462200Y-129398800D02*
X131462200Y-129548000D01*
X112821100Y-110757700D02*
X131462200Y-129398800D01*
X132964000Y-129548000D02*
X135115000Y-131699000D01*
X131462200Y-129548000D02*
X132964000Y-129548000D01*
X114173100Y-146837100D02*
X131462200Y-129548000D01*
X114173100Y-174257100D02*
X114173100Y-146837100D01*
X107341100Y-174257100D02*
X114173100Y-174257100D01*
X106185000Y-173101000D02*
X107341100Y-174257100D01*
X114173100Y-174257100D02*
X135115000Y-195199000D01*
X168021000Y-173101000D02*
X169685000Y-173101000D01*
X200279000Y-195199000D02*
X198615000Y-195199000D01*
X169685000Y-173101000D02*
X190706000Y-194122000D01*
X197459000Y-194043000D02*
X198615000Y-195199000D01*
X192505300Y-194043000D02*
X197459000Y-194043000D01*
X192426300Y-194122000D02*
X192505300Y-194043000D01*
X190706000Y-194122000D02*
X192426300Y-194122000D01*
X170863200Y-237779200D02*
X169685000Y-236601000D01*
X184811300Y-237779200D02*
X170863200Y-237779200D01*
X189095000Y-233495500D02*
X184811300Y-237779200D01*
X189095000Y-195733000D02*
X189095000Y-233495500D01*
X190706000Y-194122000D02*
X189095000Y-195733000D01*
X192200500Y-236601000D02*
X229857000Y-236601000D01*
X189095000Y-233495500D02*
X192200500Y-236601000D01*
D17*
X168923100Y-274306900D02*
X167640000Y-275590000D01*
X168923100Y-271504100D02*
X168923100Y-274306900D01*
X134487600Y-237068600D02*
X168923100Y-271504100D01*
X128350300Y-237068600D02*
X134487600Y-237068600D01*
X132167200Y-240117200D02*
X165100000Y-273050000D01*
X127425400Y-240117200D02*
X132167200Y-240117200D01*
X134374300Y-237969200D02*
X160744600Y-264339500D01*
X126299300Y-237969200D02*
X134374300Y-237969200D01*
X125341100Y-237011000D02*
X126299300Y-237969200D01*
X68199000Y-234921000D02*
X68199000Y-195199000D01*
X75693300Y-242415300D02*
X68199000Y-234921000D01*
X131925300Y-242415300D02*
X75693300Y-242415300D01*
X162560000Y-273050000D02*
X131925300Y-242415300D01*
X109601000Y-236601000D02*
X111138000Y-236601000D01*
X111423900Y-236315100D02*
X111138000Y-236601000D01*
X134642600Y-236315100D02*
X111423900Y-236315100D01*
X169514000Y-271186500D02*
X134642600Y-236315100D01*
X169514000Y-275536400D02*
X169514000Y-271186500D01*
X168140500Y-276909900D02*
X169514000Y-275536400D01*
X163879900Y-276909900D02*
X168140500Y-276909900D01*
X162560000Y-275590000D02*
X163879900Y-276909900D01*
X130079300Y-243109300D02*
X160020000Y-273050000D01*
X129550900Y-243109300D02*
X130079300Y-243109300D01*
X171553200Y-245158800D02*
X174638000Y-242074000D01*
X171553200Y-274380200D02*
X171553200Y-245158800D01*
X168424100Y-277509300D02*
X171553200Y-274380200D01*
X161939300Y-277509300D02*
X168424100Y-277509300D01*
X160020000Y-275590000D02*
X161939300Y-277509300D01*
X154940000Y-270308000D02*
X154940000Y-273050000D01*
X142565600Y-257933600D02*
X154940000Y-270308000D01*
X173101000Y-273659100D02*
X173101000Y-246211700D01*
X168666200Y-278093900D02*
X173101000Y-273659100D01*
X157443900Y-278093900D02*
X168666200Y-278093900D01*
X154940000Y-275590000D02*
X157443900Y-278093900D01*
X130886000Y-245272500D02*
X130595400Y-245272500D01*
X157480000Y-271866500D02*
X130886000Y-245272500D01*
X157480000Y-273050000D02*
X157480000Y-271866500D01*
X174638000Y-175748800D02*
X192138200Y-193249000D01*
X174638000Y-173101000D02*
X174638000Y-175748800D01*
X173101000Y-173101000D02*
X174638000Y-173101000D01*
X193789000Y-169090600D02*
X190505200Y-172374400D01*
X193789000Y-131699000D02*
X193789000Y-169090600D01*
X195199000Y-131699000D02*
X193789000Y-131699000D01*
X195199000Y-195199000D02*
X193789000Y-195199000D01*
X193789000Y-195200400D02*
X189916000Y-199073400D01*
X193789000Y-195199000D02*
X193789000Y-195200400D01*
X236601000Y-236601000D02*
X235064000Y-236601000D01*
X192986500Y-278678500D02*
X235064000Y-236601000D01*
X150408500Y-278678500D02*
X192986500Y-278678500D01*
X147320000Y-275590000D02*
X150408500Y-278678500D01*
M02*
