G04 #@! TF.FileFunction,Copper,L2,Bot,Signal*
%FSLAX46Y46*%
G04 Gerber Fmt 4.6, Leading zero omitted, Abs format (unit mm)*
G04 Created by KiCad (PCBNEW 4.0.7-e2-6376~58~ubuntu16.04.1) date Wed Nov 28 15:41:44 2018*
%MOMM*%
%LPD*%
G01*
G04 APERTURE LIST*
%ADD10C,0.100000*%
%ADD11C,7.289800*%
%ADD12R,1.778000X1.778000*%
%ADD13C,1.778000*%
%ADD14R,2.032000X1.270000*%
%ADD15O,2.286000X1.270000*%
%ADD16C,0.600000*%
%ADD17C,0.381000*%
%ADD18C,0.635000*%
G04 APERTURE END LIST*
D10*
D11*
X38100000Y-38100000D03*
X266700000Y-38100000D03*
X266700000Y-266700000D03*
X38100000Y-266700000D03*
D12*
X167640000Y-273050000D03*
D13*
X167640000Y-275590000D03*
X165100000Y-273050000D03*
X165100000Y-275590000D03*
X162560000Y-273050000D03*
X162560000Y-275590000D03*
X160020000Y-273050000D03*
X160020000Y-275590000D03*
X157480000Y-273050000D03*
X157480000Y-275590000D03*
X154940000Y-273050000D03*
X154940000Y-275590000D03*
X152400000Y-273050000D03*
X152400000Y-275590000D03*
X149860000Y-273050000D03*
X149860000Y-275590000D03*
X147320000Y-273050000D03*
X147320000Y-275590000D03*
X144780000Y-273050000D03*
X144780000Y-275590000D03*
X142240000Y-273050000D03*
X142240000Y-275590000D03*
X139700000Y-273050000D03*
X139700000Y-275590000D03*
X137160000Y-273050000D03*
X137160000Y-275590000D03*
D14*
X195199000Y-195199000D03*
D15*
X200279000Y-195199000D03*
X231521000Y-236601000D03*
X236601000Y-236601000D03*
D14*
X195199000Y-131699000D03*
D15*
X200279000Y-131699000D03*
X231521000Y-173101000D03*
X236601000Y-173101000D03*
D14*
X195199000Y-68199000D03*
D15*
X200279000Y-68199000D03*
X231521000Y-109601000D03*
X236601000Y-109601000D03*
D14*
X131699000Y-195199000D03*
D15*
X136779000Y-195199000D03*
X168021000Y-236601000D03*
X173101000Y-236601000D03*
D14*
X131699000Y-131699000D03*
D15*
X136779000Y-131699000D03*
X168021000Y-173101000D03*
X173101000Y-173101000D03*
D14*
X131699000Y-68199000D03*
D15*
X136779000Y-68199000D03*
X168021000Y-109601000D03*
X173101000Y-109601000D03*
D14*
X68199000Y-195199000D03*
D15*
X73279000Y-195199000D03*
X104521000Y-236601000D03*
X109601000Y-236601000D03*
D14*
X68199000Y-131699000D03*
D15*
X73279000Y-131699000D03*
X104521000Y-173101000D03*
X109601000Y-173101000D03*
D14*
X68199000Y-68199000D03*
D15*
X73279000Y-68199000D03*
X104521000Y-109601000D03*
X109601000Y-109601000D03*
D16*
X128468700Y-239029500D03*
X128350300Y-237068600D03*
X127425400Y-240117200D03*
X125341100Y-237011000D03*
X160744600Y-264339500D03*
X129550900Y-243109300D03*
X174638000Y-242074000D03*
X142565600Y-257933600D03*
X173101000Y-246211700D03*
X130595400Y-245272500D03*
X192138200Y-193249000D03*
X190505200Y-172374400D03*
X189916000Y-199073400D03*
D17*
X127534700Y-238095500D02*
X128468700Y-239029500D01*
X127534700Y-151338400D02*
X127534700Y-238095500D01*
X88509500Y-112313200D02*
X127534700Y-151338400D01*
X72581800Y-112313200D02*
X88509500Y-112313200D01*
X68199000Y-107930400D02*
X72581800Y-112313200D01*
X68199000Y-68199000D02*
X68199000Y-107930400D01*
D18*
X137160000Y-275590000D02*
X137160000Y-273050000D01*
X160541000Y-109601000D02*
X138443000Y-131699000D01*
X168021000Y-109601000D02*
X160541000Y-109601000D01*
X136779000Y-131699000D02*
X138443000Y-131699000D01*
X168021000Y-236601000D02*
X166357000Y-236601000D01*
X104521000Y-236601000D02*
X106185000Y-236601000D01*
X106185000Y-236601000D02*
X136271000Y-266687000D01*
X137160000Y-267576000D02*
X136271000Y-266687000D01*
X137160000Y-273050000D02*
X137160000Y-267576000D01*
X136271000Y-266687000D02*
X166357000Y-236601000D01*
X144259000Y-195199000D02*
X166357000Y-173101000D01*
X136779000Y-195199000D02*
X144259000Y-195199000D01*
X168021000Y-173101000D02*
X166357000Y-173101000D01*
D17*
X128350300Y-126813300D02*
X128350300Y-237068600D01*
X111138000Y-109601000D02*
X128350300Y-126813300D01*
X109601000Y-109601000D02*
X111138000Y-109601000D01*
X108950500Y-221642300D02*
X127425400Y-240117200D01*
X108950500Y-196230600D02*
X108950500Y-221642300D01*
X98142700Y-185422800D02*
X108950500Y-196230600D01*
X82191400Y-185422800D02*
X98142700Y-185422800D01*
X68199000Y-171430400D02*
X82191400Y-185422800D01*
X68199000Y-131699000D02*
X68199000Y-171430400D01*
X111138000Y-222807900D02*
X125341100Y-237011000D01*
X111138000Y-173101000D02*
X111138000Y-222807900D01*
X109601000Y-173101000D02*
X111138000Y-173101000D01*
X161288200Y-264339500D02*
X160744600Y-264339500D01*
X168951400Y-272002700D02*
X161288200Y-264339500D01*
X168951400Y-276155700D02*
X168951400Y-272002700D01*
X168196500Y-276910600D02*
X168951400Y-276155700D01*
X166420600Y-276910600D02*
X168196500Y-276910600D01*
X165100000Y-275590000D02*
X166420600Y-276910600D01*
X129550900Y-68937100D02*
X129550900Y-243109300D01*
X130289000Y-68199000D02*
X129550900Y-68937100D01*
X131699000Y-68199000D02*
X130289000Y-68199000D01*
X173101000Y-109601000D02*
X174638000Y-109601000D01*
X174638000Y-109601000D02*
X174638000Y-242074000D01*
X131699000Y-247067000D02*
X142565600Y-257933600D01*
X131699000Y-195199000D02*
X131699000Y-247067000D01*
X173101000Y-236601000D02*
X173101000Y-246211700D01*
X130289000Y-244966100D02*
X130595400Y-245272500D01*
X130289000Y-131699000D02*
X130289000Y-244966100D01*
X131699000Y-131699000D02*
X130289000Y-131699000D01*
X159417900Y-277527900D02*
X157480000Y-275590000D01*
X168414700Y-277527900D02*
X159417900Y-277527900D01*
X192138200Y-253804400D02*
X168414700Y-277527900D01*
X192138200Y-193249000D02*
X192138200Y-253804400D01*
X195199000Y-68199000D02*
X193789000Y-68199000D01*
X152400000Y-270857800D02*
X152400000Y-273050000D01*
X191418000Y-231839800D02*
X152400000Y-270857800D01*
X191418000Y-70570000D02*
X191418000Y-231839800D01*
X193789000Y-68199000D02*
X191418000Y-70570000D01*
X236601000Y-109601000D02*
X235064000Y-109601000D01*
X233527000Y-111138000D02*
X235064000Y-109601000D01*
X213551200Y-111138000D02*
X233527000Y-111138000D01*
X192858400Y-131830800D02*
X213551200Y-111138000D01*
X192858400Y-253910900D02*
X192858400Y-131830800D01*
X168656800Y-278112500D02*
X192858400Y-253910900D01*
X154922500Y-278112500D02*
X168656800Y-278112500D01*
X152400000Y-275590000D02*
X154922500Y-278112500D01*
X149860000Y-272263700D02*
X149860000Y-273050000D01*
X190703600Y-231420100D02*
X149860000Y-272263700D01*
X190703600Y-172572800D02*
X190703600Y-231420100D01*
X190505200Y-172374400D02*
X190703600Y-172572800D01*
X236601000Y-173101000D02*
X235064000Y-173101000D01*
X214161400Y-194003600D02*
X235064000Y-173101000D01*
X194185500Y-194003600D02*
X214161400Y-194003600D01*
X193788900Y-194400200D02*
X194185500Y-194003600D01*
X193788900Y-253807000D02*
X193788900Y-194400200D01*
X168898900Y-278697000D02*
X193788900Y-253807000D01*
X152967000Y-278697000D02*
X168898900Y-278697000D01*
X149860000Y-275590000D02*
X152967000Y-278697000D01*
X189916000Y-230454000D02*
X147320000Y-273050000D01*
X189916000Y-199073400D02*
X189916000Y-230454000D01*
M02*
