M48
;DRILL file {KiCad 4.0.7-e2-6376~58~ubuntu16.04.1} date Mon Sep 23 14:36:09 2019
;FORMAT={-:-/ absolute / inch / decimal}
FMAT,2
INCH,TZ
T1C0.016
T2C0.025
T3C0.040
T4C0.257
%
G90
G05
M72
T1
X3.5297Y-8.2747
X4.548Y-10.16
X4.7049Y-8.3548
X5.0095Y-9.2275
X5.0581Y-9.143
X5.1148Y-9.2413
X5.4062Y-10.9279
X5.5114Y-10.6244
X5.717Y-10.3612
X6.0988Y-10.5099
X6.4581Y-10.108
X6.8542Y-8.197
X6.8774Y-5.1655
T3
X5.4Y-10.75
X5.4Y-10.85
X5.5Y-10.75
X5.5Y-10.85
X5.6Y-10.75
X5.6Y-10.85
X5.7Y-10.75
X5.7Y-10.85
X5.8Y-10.75
X5.8Y-10.85
X5.9Y-10.75
X5.9Y-10.85
X6.Y-10.75
X6.Y-10.85
X6.1Y-10.75
X6.1Y-10.85
X6.2Y-10.75
X6.2Y-10.85
X6.3Y-10.75
X6.3Y-10.85
X6.4Y-10.75
X6.4Y-10.85
X6.5Y-10.75
X6.5Y-10.85
X6.6Y-10.75
X6.6Y-10.85
T4
X1.5Y-1.5
X1.5Y-10.5
X10.5Y-1.5
X10.5Y-10.5
T2
X2.4784Y-2.3365G85X2.513Y-2.3165
G05
X2.4784Y-5.3365G85X2.513Y-5.3165
G05
X2.4784Y-8.3365G85X2.513Y-8.3165
G05
X2.6516Y-2.2365G85X2.6862Y-2.2165
G05
X2.6516Y-5.2365G85X2.6862Y-5.2165
G05
X2.6516Y-8.2365G85X2.6862Y-8.2165
G05
X3.3138Y-2.2165G85X3.3484Y-2.2365
G05
X3.3138Y-5.2165G85X3.3484Y-5.2365
G05
X3.3138Y-8.2165G85X3.3484Y-8.2365
G05
X3.487Y-2.3165G85X3.5216Y-2.3365
G05
X3.487Y-5.3165G85X3.5216Y-5.3365
G05
X3.487Y-8.3165G85X3.5216Y-8.3365
G05
X5.4784Y-2.3365G85X5.513Y-2.3165
G05
X5.4784Y-5.3365G85X5.513Y-5.3165
G05
X5.4784Y-8.3365G85X5.513Y-8.3165
G05
X5.6516Y-2.2365G85X5.6862Y-2.2165
G05
X5.6516Y-5.2365G85X5.6862Y-5.2165
G05
X5.6516Y-8.2365G85X5.6862Y-8.2165
G05
X6.3138Y-2.2165G85X6.3484Y-2.2365
G05
X6.3138Y-5.2165G85X6.3484Y-5.2365
G05
X6.3138Y-8.2165G85X6.3484Y-8.2365
G05
X6.487Y-2.3165G85X6.5216Y-2.3365
G05
X6.487Y-5.3165G85X6.5216Y-5.3365
G05
X6.487Y-8.3165G85X6.5216Y-8.3365
G05
X7.9784Y-5.3365G85X8.013Y-5.3165
G05
X8.1516Y-5.2365G85X8.1862Y-5.2165
G05
X8.4784Y-2.3365G85X8.513Y-2.3165
G05
X8.4784Y-8.3365G85X8.513Y-8.3165
G05
X8.6516Y-2.2365G85X8.6862Y-2.2165
G05
X8.6516Y-8.2365G85X8.6862Y-8.2165
G05
X8.8138Y-5.2165G85X8.8484Y-5.2365
G05
X8.987Y-5.3165G85X9.0216Y-5.3365
G05
X9.3138Y-2.2165G85X9.3484Y-2.2365
G05
X9.3138Y-8.2165G85X9.3484Y-8.2365
G05
X9.487Y-2.3165G85X9.5216Y-2.3365
G05
X9.487Y-8.3165G85X9.5216Y-8.3365
G05
T0
M30
