G04 #@! TF.FileFunction,Copper,L1,Top,Signal*
%FSLAX46Y46*%
G04 Gerber Fmt 4.6, Leading zero omitted, Abs format (unit mm)*
G04 Created by KiCad (PCBNEW 4.0.7-e2-6376~58~ubuntu16.04.1) date Mon Sep 23 14:36:03 2019*
%MOMM*%
%LPD*%
G01*
G04 APERTURE LIST*
%ADD10C,0.100000*%
%ADD11C,7.289800*%
%ADD12R,1.778000X1.778000*%
%ADD13C,1.778000*%
%ADD14C,1.270000*%
%ADD15C,0.600000*%
%ADD16C,0.381000*%
%ADD17C,0.635000*%
G04 APERTURE END LIST*
D10*
D11*
X38100000Y-38100000D03*
X266700000Y-38100000D03*
X266700000Y-266700000D03*
X38100000Y-266700000D03*
D12*
X167640000Y-273050000D03*
D13*
X167640000Y-275590000D03*
X165100000Y-273050000D03*
X165100000Y-275590000D03*
X162560000Y-273050000D03*
X162560000Y-275590000D03*
X160020000Y-273050000D03*
X160020000Y-275590000D03*
X157480000Y-273050000D03*
X157480000Y-275590000D03*
X154940000Y-273050000D03*
X154940000Y-275590000D03*
X152400000Y-273050000D03*
X152400000Y-275590000D03*
X149860000Y-273050000D03*
X149860000Y-275590000D03*
X147320000Y-273050000D03*
X147320000Y-275590000D03*
X144780000Y-273050000D03*
X144780000Y-275590000D03*
X142240000Y-273050000D03*
X142240000Y-275590000D03*
X139700000Y-273050000D03*
X139700000Y-275590000D03*
X137160000Y-273050000D03*
X137160000Y-275590000D03*
D10*
G36*
X235812913Y-208994867D02*
X236447913Y-207895015D01*
X238207677Y-208911015D01*
X237572677Y-210010867D01*
X235812913Y-208994867D01*
X235812913Y-208994867D01*
G37*
D14*
X240969764Y-211238941D02*
X241849646Y-211746941D01*
D10*
G36*
X215227913Y-212550867D02*
X214592913Y-211451015D01*
X216352677Y-210435015D01*
X216987677Y-211534867D01*
X215227913Y-212550867D01*
X215227913Y-212550867D01*
G37*
D14*
X219749764Y-209206941D02*
X220629646Y-208698941D01*
D10*
G36*
X223112913Y-132794867D02*
X223747913Y-131695015D01*
X225507677Y-132711015D01*
X224872677Y-133810867D01*
X223112913Y-132794867D01*
X223112913Y-132794867D01*
G37*
D14*
X228269764Y-135038941D02*
X229149646Y-135546941D01*
D10*
G36*
X202527913Y-136350867D02*
X201892913Y-135251015D01*
X203652677Y-134235015D01*
X204287677Y-135334867D01*
X202527913Y-136350867D01*
X202527913Y-136350867D01*
G37*
D14*
X207049764Y-133006941D02*
X207929646Y-132498941D01*
D10*
G36*
X235812913Y-56594867D02*
X236447913Y-55495015D01*
X238207677Y-56511015D01*
X237572677Y-57610867D01*
X235812913Y-56594867D01*
X235812913Y-56594867D01*
G37*
D14*
X240969764Y-58838941D02*
X241849646Y-59346941D01*
D10*
G36*
X215227913Y-60150867D02*
X214592913Y-59051015D01*
X216352677Y-58035015D01*
X216987677Y-59134867D01*
X215227913Y-60150867D01*
X215227913Y-60150867D01*
G37*
D14*
X219749764Y-56806941D02*
X220629646Y-56298941D01*
D10*
G36*
X159612913Y-208994867D02*
X160247913Y-207895015D01*
X162007677Y-208911015D01*
X161372677Y-210010867D01*
X159612913Y-208994867D01*
X159612913Y-208994867D01*
G37*
D14*
X164769764Y-211238941D02*
X165649646Y-211746941D01*
D10*
G36*
X139027913Y-212550867D02*
X138392913Y-211451015D01*
X140152677Y-210435015D01*
X140787677Y-211534867D01*
X139027913Y-212550867D01*
X139027913Y-212550867D01*
G37*
D14*
X143549764Y-209206941D02*
X144429646Y-208698941D01*
D10*
G36*
X159612913Y-132794867D02*
X160247913Y-131695015D01*
X162007677Y-132711015D01*
X161372677Y-133810867D01*
X159612913Y-132794867D01*
X159612913Y-132794867D01*
G37*
D14*
X164769764Y-135038941D02*
X165649646Y-135546941D01*
D10*
G36*
X62827913Y-60150867D02*
X62192913Y-59051015D01*
X63952677Y-58035015D01*
X64587677Y-59134867D01*
X62827913Y-60150867D01*
X62827913Y-60150867D01*
G37*
D14*
X67349764Y-56806941D02*
X68229646Y-56298941D01*
D10*
G36*
X83412913Y-56594867D02*
X84047913Y-55495015D01*
X85807677Y-56511015D01*
X85172677Y-57610867D01*
X83412913Y-56594867D01*
X83412913Y-56594867D01*
G37*
D14*
X88569764Y-58838941D02*
X89449646Y-59346941D01*
D10*
G36*
X62827913Y-136350867D02*
X62192913Y-135251015D01*
X63952677Y-134235015D01*
X64587677Y-135334867D01*
X62827913Y-136350867D01*
X62827913Y-136350867D01*
G37*
D14*
X67349764Y-133006941D02*
X68229646Y-132498941D01*
D10*
G36*
X83412913Y-132794867D02*
X84047913Y-131695015D01*
X85807677Y-132711015D01*
X85172677Y-133810867D01*
X83412913Y-132794867D01*
X83412913Y-132794867D01*
G37*
D14*
X88569764Y-135038941D02*
X89449646Y-135546941D01*
D10*
G36*
X62827913Y-212550867D02*
X62192913Y-211451015D01*
X63952677Y-210435015D01*
X64587677Y-211534867D01*
X62827913Y-212550867D01*
X62827913Y-212550867D01*
G37*
D14*
X67349764Y-209206941D02*
X68229646Y-208698941D01*
D10*
G36*
X83412913Y-208994867D02*
X84047913Y-207895015D01*
X85807677Y-208911015D01*
X85172677Y-210010867D01*
X83412913Y-208994867D01*
X83412913Y-208994867D01*
G37*
D14*
X88569764Y-211238941D02*
X89449646Y-211746941D01*
D10*
G36*
X139027913Y-60150867D02*
X138392913Y-59051015D01*
X140152677Y-58035015D01*
X140787677Y-59134867D01*
X139027913Y-60150867D01*
X139027913Y-60150867D01*
G37*
D14*
X143549764Y-56806941D02*
X144429646Y-56298941D01*
D10*
G36*
X159612913Y-56594867D02*
X160247913Y-55495015D01*
X162007677Y-56511015D01*
X161372677Y-57610867D01*
X159612913Y-56594867D01*
X159612913Y-56594867D01*
G37*
D14*
X164769764Y-58838941D02*
X165649646Y-59346941D01*
D10*
G36*
X139027913Y-136350867D02*
X138392913Y-135251015D01*
X140152677Y-134235015D01*
X140787677Y-135334867D01*
X139027913Y-136350867D01*
X139027913Y-136350867D01*
G37*
D14*
X143549764Y-133006941D02*
X144429646Y-132498941D01*
D15*
X119503900Y-212211500D03*
X128475700Y-232233400D03*
X127241700Y-234379700D03*
X129914700Y-234729700D03*
X89655600Y-210178300D03*
X115519500Y-258064300D03*
X145212800Y-263175300D03*
X139989600Y-269858900D03*
X154909600Y-266950800D03*
X137318200Y-277569400D03*
X174687100Y-131202700D03*
X174097400Y-208204800D03*
X164036600Y-256744200D03*
D16*
X119503900Y-225660500D02*
X119503900Y-212211500D01*
X127935700Y-234092300D02*
X119503900Y-225660500D01*
X127935700Y-234630200D02*
X127935700Y-234092300D01*
X144352600Y-251047100D02*
X127935700Y-234630200D01*
X145637100Y-251047100D02*
X144352600Y-251047100D01*
X167640000Y-273050000D02*
X145637100Y-251047100D01*
D17*
X165209700Y-135164500D02*
X165209700Y-135292900D01*
X165209700Y-211355900D02*
X165209700Y-211492900D01*
X241409700Y-58963800D02*
X241409700Y-59092900D01*
X237411500Y-54965600D02*
X241409700Y-58963800D01*
X221777000Y-54965600D02*
X237411500Y-54965600D01*
X220189700Y-56552900D02*
X221777000Y-54965600D01*
X209100100Y-131142500D02*
X207489700Y-132752900D01*
X224696300Y-131142500D02*
X209100100Y-131142500D01*
X228709700Y-135155900D02*
X224696300Y-131142500D01*
X228709700Y-135292900D02*
X228709700Y-135155900D01*
X236474600Y-143057800D02*
X236474600Y-207364700D01*
X228709700Y-135292900D02*
X236474600Y-143057800D01*
X221777900Y-207364700D02*
X236474600Y-207364700D01*
X220189700Y-208952900D02*
X221777900Y-207364700D01*
X241409700Y-211354600D02*
X241409700Y-211492900D01*
X237419800Y-207364700D02*
X241409700Y-211354600D01*
X236474600Y-207364700D02*
X237419800Y-207364700D01*
X145591700Y-131150900D02*
X143989700Y-132752900D01*
X161196100Y-131150900D02*
X145591700Y-131150900D01*
X165209700Y-135164500D02*
X161196100Y-131150900D01*
X69385000Y-131157600D02*
X67789700Y-132752900D01*
X85011200Y-131157600D02*
X69385000Y-131157600D01*
X89078100Y-135224500D02*
X85011200Y-131157600D01*
X91549700Y-132752900D02*
X89078100Y-135224500D01*
X143989700Y-132752900D02*
X91549700Y-132752900D01*
X89078100Y-135224500D02*
X89009700Y-135292900D01*
X207489700Y-132752900D02*
X172929100Y-132752900D01*
X167621300Y-132752900D02*
X165209700Y-135164500D01*
X172929100Y-132752900D02*
X167621300Y-132752900D01*
X89009700Y-59092900D02*
X89009700Y-58973100D01*
X69385400Y-54957200D02*
X67789700Y-56552900D01*
X84993800Y-54957200D02*
X69385400Y-54957200D01*
X89009700Y-58973100D02*
X84993800Y-54957200D01*
X91429900Y-56552900D02*
X89009700Y-58973100D01*
X143989700Y-56552900D02*
X91429900Y-56552900D01*
X145571500Y-54971100D02*
X143989700Y-56552900D01*
X161230000Y-54971100D02*
X145571500Y-54971100D01*
X165209700Y-58950800D02*
X161230000Y-54971100D01*
X165209700Y-59092900D02*
X165209700Y-58950800D01*
X183188500Y-56552900D02*
X220189700Y-56552900D01*
X172929100Y-66812300D02*
X183188500Y-56552900D01*
X172929100Y-132752900D02*
X172929100Y-66812300D01*
X172929100Y-66812300D02*
X165209700Y-59092900D01*
X145595300Y-207347300D02*
X143989700Y-208952900D01*
X161201100Y-207347300D02*
X145595300Y-207347300D01*
X165209700Y-211355900D02*
X161201100Y-207347300D01*
X92042100Y-208952900D02*
X143989700Y-208952900D01*
X89502100Y-211492900D02*
X92042100Y-208952900D01*
X89009700Y-211492900D02*
X89502100Y-211492900D01*
X220116800Y-209025800D02*
X220189700Y-208952900D01*
X167539800Y-209025800D02*
X220116800Y-209025800D01*
X165209700Y-211355900D02*
X167539800Y-209025800D01*
D16*
X128520200Y-232277900D02*
X128475700Y-232233400D01*
X128520200Y-234388100D02*
X128520200Y-232277900D01*
X144594700Y-250462600D02*
X128520200Y-234388100D01*
X147437200Y-250462600D02*
X144594700Y-250462600D01*
X168923100Y-271948500D02*
X147437200Y-250462600D01*
X168923100Y-274306900D02*
X168923100Y-271948500D01*
X167640000Y-275590000D02*
X168923100Y-274306900D01*
X127241700Y-235191700D02*
X165100000Y-273050000D01*
X127241700Y-234379700D02*
X127241700Y-235191700D01*
X129914700Y-234956000D02*
X129914700Y-234729700D01*
X144630000Y-249671300D02*
X129914700Y-234956000D01*
X147488500Y-249671300D02*
X144630000Y-249671300D01*
X169512200Y-271695000D02*
X147488500Y-249671300D01*
X169512200Y-275550500D02*
X169512200Y-271695000D01*
X168125400Y-276937300D02*
X169512200Y-275550500D01*
X166447300Y-276937300D02*
X168125400Y-276937300D01*
X165100000Y-275590000D02*
X166447300Y-276937300D01*
X145559000Y-256049000D02*
X162560000Y-273050000D01*
X74751300Y-256049000D02*
X145559000Y-256049000D01*
X55786400Y-237084100D02*
X74751300Y-256049000D01*
X55786400Y-219096800D02*
X55786400Y-237084100D01*
X63390300Y-211492900D02*
X55786400Y-219096800D01*
X88430200Y-208952900D02*
X89655600Y-210178300D01*
X84610300Y-208952900D02*
X88430200Y-208952900D01*
X159884300Y-278265700D02*
X162560000Y-275590000D01*
X135720900Y-278265700D02*
X159884300Y-278265700D01*
X115519500Y-258064300D02*
X135720900Y-278265700D01*
X154940000Y-272902500D02*
X145212800Y-263175300D01*
X154940000Y-273050000D02*
X154940000Y-272902500D01*
X138534600Y-269858900D02*
X139989600Y-269858900D01*
X135844800Y-272548700D02*
X138534600Y-269858900D01*
X135844800Y-276196600D02*
X135844800Y-272548700D01*
X136521300Y-276873100D02*
X135844800Y-276196600D01*
X153656900Y-276873100D02*
X136521300Y-276873100D01*
X154940000Y-275590000D02*
X153656900Y-276873100D01*
X154909600Y-270479600D02*
X157480000Y-273050000D01*
X154909600Y-266950800D02*
X154909600Y-270479600D01*
X155500600Y-277569400D02*
X137318200Y-277569400D01*
X157480000Y-275590000D02*
X155500600Y-277569400D01*
X174687100Y-100196100D02*
X174687100Y-131202700D01*
X215790300Y-59092900D02*
X174687100Y-100196100D01*
X174097400Y-164285800D02*
X174097400Y-208204800D01*
X203090300Y-135292900D02*
X174097400Y-164285800D01*
X170539000Y-256744200D02*
X164036600Y-256744200D01*
X215790300Y-211492900D02*
X170539000Y-256744200D01*
M02*
