G04 #@! TF.FileFunction,Legend,Top*
%FSLAX46Y46*%
G04 Gerber Fmt 4.6, Leading zero omitted, Abs format (unit mm)*
G04 Created by KiCad (PCBNEW 4.0.7-e2-6376~58~ubuntu16.04.1) date Mon Sep 23 14:36:03 2019*
%MOMM*%
%LPD*%
G01*
G04 APERTURE LIST*
%ADD10C,0.100000*%
%ADD11C,0.254000*%
%ADD12C,0.381000*%
%ADD13C,0.304800*%
%ADD14C,0.177800*%
G04 APERTURE END LIST*
D10*
D11*
X55952570Y-268659429D02*
X55952570Y-267135429D01*
X56533142Y-267135429D01*
X56678284Y-267208000D01*
X56750856Y-267280571D01*
X56823427Y-267425714D01*
X56823427Y-267643429D01*
X56750856Y-267788571D01*
X56678284Y-267861143D01*
X56533142Y-267933714D01*
X55952570Y-267933714D01*
X58129713Y-268659429D02*
X58129713Y-267861143D01*
X58057142Y-267716000D01*
X57911999Y-267643429D01*
X57621713Y-267643429D01*
X57476570Y-267716000D01*
X58129713Y-268586857D02*
X57984570Y-268659429D01*
X57621713Y-268659429D01*
X57476570Y-268586857D01*
X57403999Y-268441714D01*
X57403999Y-268296571D01*
X57476570Y-268151429D01*
X57621713Y-268078857D01*
X57984570Y-268078857D01*
X58129713Y-268006286D01*
X58637713Y-267643429D02*
X59218284Y-267643429D01*
X58855427Y-267135429D02*
X58855427Y-268441714D01*
X58927999Y-268586857D01*
X59073141Y-268659429D01*
X59218284Y-268659429D01*
X59726284Y-268659429D02*
X59726284Y-267135429D01*
X60379427Y-268659429D02*
X60379427Y-267861143D01*
X60306856Y-267716000D01*
X60161713Y-267643429D01*
X59943998Y-267643429D01*
X59798856Y-267716000D01*
X59726284Y-267788571D01*
X61105141Y-268659429D02*
X61105141Y-267135429D01*
X61830855Y-267643429D02*
X61830855Y-268659429D01*
X61830855Y-267788571D02*
X61903427Y-267716000D01*
X62048569Y-267643429D01*
X62266284Y-267643429D01*
X62411427Y-267716000D01*
X62483998Y-267861143D01*
X62483998Y-268659429D01*
X62991998Y-267643429D02*
X63572569Y-267643429D01*
X63209712Y-267135429D02*
X63209712Y-268441714D01*
X63282284Y-268586857D01*
X63427426Y-268659429D01*
X63572569Y-268659429D01*
X66330284Y-268224000D02*
X67055998Y-268224000D01*
X66185141Y-268659429D02*
X66693141Y-267135429D01*
X67201141Y-268659429D01*
X67709141Y-268659429D02*
X67709141Y-267643429D01*
X67709141Y-267933714D02*
X67781713Y-267788571D01*
X67854284Y-267716000D01*
X67999427Y-267643429D01*
X68144570Y-267643429D01*
X69233142Y-268586857D02*
X69087999Y-268659429D01*
X68797713Y-268659429D01*
X68652570Y-268586857D01*
X68579999Y-268441714D01*
X68579999Y-267861143D01*
X68652570Y-267716000D01*
X68797713Y-267643429D01*
X69087999Y-267643429D01*
X69233142Y-267716000D01*
X69305713Y-267861143D01*
X69305713Y-268006286D01*
X68579999Y-268151429D01*
X69958856Y-267643429D02*
X69958856Y-268659429D01*
X69958856Y-267788571D02*
X70031428Y-267716000D01*
X70176570Y-267643429D01*
X70394285Y-267643429D01*
X70539428Y-267716000D01*
X70611999Y-267861143D01*
X70611999Y-268659429D01*
X71990856Y-268659429D02*
X71990856Y-267861143D01*
X71918285Y-267716000D01*
X71773142Y-267643429D01*
X71482856Y-267643429D01*
X71337713Y-267716000D01*
X71990856Y-268586857D02*
X71845713Y-268659429D01*
X71482856Y-268659429D01*
X71337713Y-268586857D01*
X71265142Y-268441714D01*
X71265142Y-268296571D01*
X71337713Y-268151429D01*
X71482856Y-268078857D01*
X71845713Y-268078857D01*
X71990856Y-268006286D01*
X73732570Y-267135429D02*
X74675999Y-267135429D01*
X74167999Y-267716000D01*
X74385713Y-267716000D01*
X74530856Y-267788571D01*
X74603427Y-267861143D01*
X74675999Y-268006286D01*
X74675999Y-268369143D01*
X74603427Y-268514286D01*
X74530856Y-268586857D01*
X74385713Y-268659429D01*
X73950285Y-268659429D01*
X73805142Y-268586857D01*
X73732570Y-268514286D01*
X75183999Y-268659429D02*
X75982285Y-267643429D01*
X75183999Y-267643429D02*
X75982285Y-268659429D01*
X76417713Y-267135429D02*
X77361142Y-267135429D01*
X76853142Y-267716000D01*
X77070856Y-267716000D01*
X77215999Y-267788571D01*
X77288570Y-267861143D01*
X77361142Y-268006286D01*
X77361142Y-268369143D01*
X77288570Y-268514286D01*
X77215999Y-268586857D01*
X77070856Y-268659429D01*
X76635428Y-268659429D01*
X76490285Y-268586857D01*
X76417713Y-268514286D01*
X78086857Y-268586857D02*
X78086857Y-268659429D01*
X78014285Y-268804571D01*
X77941714Y-268877143D01*
X80554285Y-267135429D02*
X80263999Y-267135429D01*
X80118856Y-267208000D01*
X80046285Y-267280571D01*
X79901142Y-267498286D01*
X79828571Y-267788571D01*
X79828571Y-268369143D01*
X79901142Y-268514286D01*
X79973714Y-268586857D01*
X80118856Y-268659429D01*
X80409142Y-268659429D01*
X80554285Y-268586857D01*
X80626856Y-268514286D01*
X80699428Y-268369143D01*
X80699428Y-268006286D01*
X80626856Y-267861143D01*
X80554285Y-267788571D01*
X80409142Y-267716000D01*
X80118856Y-267716000D01*
X79973714Y-267788571D01*
X79901142Y-267861143D01*
X79828571Y-268006286D01*
X81642857Y-267135429D02*
X81788000Y-267135429D01*
X81933143Y-267208000D01*
X82005714Y-267280571D01*
X82078285Y-267425714D01*
X82150857Y-267716000D01*
X82150857Y-268078857D01*
X82078285Y-268369143D01*
X82005714Y-268514286D01*
X81933143Y-268586857D01*
X81788000Y-268659429D01*
X81642857Y-268659429D01*
X81497714Y-268586857D01*
X81425143Y-268514286D01*
X81352571Y-268369143D01*
X81280000Y-268078857D01*
X81280000Y-267716000D01*
X81352571Y-267425714D01*
X81425143Y-267280571D01*
X81497714Y-267208000D01*
X81642857Y-267135429D01*
X83965143Y-268659429D02*
X83965143Y-267135429D01*
X84328000Y-267135429D01*
X84545715Y-267208000D01*
X84690857Y-267353143D01*
X84763429Y-267498286D01*
X84836000Y-267788571D01*
X84836000Y-268006286D01*
X84763429Y-268296571D01*
X84690857Y-268441714D01*
X84545715Y-268586857D01*
X84328000Y-268659429D01*
X83965143Y-268659429D01*
X86069715Y-268586857D02*
X85924572Y-268659429D01*
X85634286Y-268659429D01*
X85489143Y-268586857D01*
X85416572Y-268441714D01*
X85416572Y-267861143D01*
X85489143Y-267716000D01*
X85634286Y-267643429D01*
X85924572Y-267643429D01*
X86069715Y-267716000D01*
X86142286Y-267861143D01*
X86142286Y-268006286D01*
X85416572Y-268151429D01*
X87448572Y-267643429D02*
X87448572Y-268877143D01*
X87376001Y-269022286D01*
X87303429Y-269094857D01*
X87158286Y-269167429D01*
X86940572Y-269167429D01*
X86795429Y-269094857D01*
X87448572Y-268586857D02*
X87303429Y-268659429D01*
X87013143Y-268659429D01*
X86868001Y-268586857D01*
X86795429Y-268514286D01*
X86722858Y-268369143D01*
X86722858Y-267933714D01*
X86795429Y-267788571D01*
X86868001Y-267716000D01*
X87013143Y-267643429D01*
X87303429Y-267643429D01*
X87448572Y-267716000D01*
X88174286Y-268659429D02*
X88174286Y-267643429D01*
X88174286Y-267933714D02*
X88246858Y-267788571D01*
X88319429Y-267716000D01*
X88464572Y-267643429D01*
X88609715Y-267643429D01*
X89698287Y-268586857D02*
X89553144Y-268659429D01*
X89262858Y-268659429D01*
X89117715Y-268586857D01*
X89045144Y-268441714D01*
X89045144Y-267861143D01*
X89117715Y-267716000D01*
X89262858Y-267643429D01*
X89553144Y-267643429D01*
X89698287Y-267716000D01*
X89770858Y-267861143D01*
X89770858Y-268006286D01*
X89045144Y-268151429D01*
X91004573Y-268586857D02*
X90859430Y-268659429D01*
X90569144Y-268659429D01*
X90424001Y-268586857D01*
X90351430Y-268441714D01*
X90351430Y-267861143D01*
X90424001Y-267716000D01*
X90569144Y-267643429D01*
X90859430Y-267643429D01*
X91004573Y-267716000D01*
X91077144Y-267861143D01*
X91077144Y-268006286D01*
X90351430Y-268151429D01*
X91802859Y-268586857D02*
X91802859Y-268659429D01*
X91730287Y-268804571D01*
X91657716Y-268877143D01*
X94560573Y-267135429D02*
X95068573Y-268659429D01*
X95576573Y-267135429D01*
X96374859Y-267135429D02*
X96520002Y-267135429D01*
X96665145Y-267208000D01*
X96737716Y-267280571D01*
X96810287Y-267425714D01*
X96882859Y-267716000D01*
X96882859Y-268078857D01*
X96810287Y-268369143D01*
X96737716Y-268514286D01*
X96665145Y-268586857D01*
X96520002Y-268659429D01*
X96374859Y-268659429D01*
X96229716Y-268586857D01*
X96157145Y-268514286D01*
X96084573Y-268369143D01*
X96012002Y-268078857D01*
X96012002Y-267716000D01*
X96084573Y-267425714D01*
X96157145Y-267280571D01*
X96229716Y-267208000D01*
X96374859Y-267135429D01*
X97536002Y-268514286D02*
X97608574Y-268586857D01*
X97536002Y-268659429D01*
X97463431Y-268586857D01*
X97536002Y-268514286D01*
X97536002Y-268659429D01*
X99060002Y-268659429D02*
X98189145Y-268659429D01*
X98624573Y-268659429D02*
X98624573Y-267135429D01*
X98479430Y-267353143D01*
X98334288Y-267498286D01*
X98189145Y-267570857D01*
X66330286Y-271199429D02*
X66330286Y-269675429D01*
X66693143Y-269675429D01*
X66910858Y-269748000D01*
X67056000Y-269893143D01*
X67128572Y-270038286D01*
X67201143Y-270328571D01*
X67201143Y-270546286D01*
X67128572Y-270836571D01*
X67056000Y-270981714D01*
X66910858Y-271126857D01*
X66693143Y-271199429D01*
X66330286Y-271199429D01*
X67854286Y-271199429D02*
X67854286Y-270183429D01*
X67854286Y-269675429D02*
X67781715Y-269748000D01*
X67854286Y-269820571D01*
X67926858Y-269748000D01*
X67854286Y-269675429D01*
X67854286Y-269820571D01*
X69233143Y-271126857D02*
X69088000Y-271199429D01*
X68797714Y-271199429D01*
X68652572Y-271126857D01*
X68580000Y-271054286D01*
X68507429Y-270909143D01*
X68507429Y-270473714D01*
X68580000Y-270328571D01*
X68652572Y-270256000D01*
X68797714Y-270183429D01*
X69088000Y-270183429D01*
X69233143Y-270256000D01*
X69886286Y-271199429D02*
X69886286Y-269675429D01*
X70031429Y-270618857D02*
X70466858Y-271199429D01*
X70466858Y-270183429D02*
X69886286Y-270764000D01*
X71120000Y-271199429D02*
X71120000Y-270183429D01*
X71120000Y-269675429D02*
X71047429Y-269748000D01*
X71120000Y-269820571D01*
X71192572Y-269748000D01*
X71120000Y-269675429D01*
X71120000Y-269820571D01*
X71845714Y-270183429D02*
X71845714Y-271199429D01*
X71845714Y-270328571D02*
X71918286Y-270256000D01*
X72063428Y-270183429D01*
X72281143Y-270183429D01*
X72426286Y-270256000D01*
X72498857Y-270401143D01*
X72498857Y-271199429D01*
X73152000Y-271126857D02*
X73297143Y-271199429D01*
X73587428Y-271199429D01*
X73732571Y-271126857D01*
X73805143Y-270981714D01*
X73805143Y-270909143D01*
X73732571Y-270764000D01*
X73587428Y-270691429D01*
X73369714Y-270691429D01*
X73224571Y-270618857D01*
X73152000Y-270473714D01*
X73152000Y-270401143D01*
X73224571Y-270256000D01*
X73369714Y-270183429D01*
X73587428Y-270183429D01*
X73732571Y-270256000D01*
X74675999Y-271199429D02*
X74530857Y-271126857D01*
X74458285Y-271054286D01*
X74385714Y-270909143D01*
X74385714Y-270473714D01*
X74458285Y-270328571D01*
X74530857Y-270256000D01*
X74675999Y-270183429D01*
X74893714Y-270183429D01*
X75038857Y-270256000D01*
X75111428Y-270328571D01*
X75183999Y-270473714D01*
X75183999Y-270909143D01*
X75111428Y-271054286D01*
X75038857Y-271126857D01*
X74893714Y-271199429D01*
X74675999Y-271199429D01*
X75837142Y-270183429D02*
X75837142Y-271199429D01*
X75837142Y-270328571D02*
X75909714Y-270256000D01*
X76054856Y-270183429D01*
X76272571Y-270183429D01*
X76417714Y-270256000D01*
X76490285Y-270401143D01*
X76490285Y-271199429D01*
X79102856Y-271199429D02*
X78377142Y-271199429D01*
X78377142Y-269675429D01*
X80263999Y-271199429D02*
X80263999Y-270401143D01*
X80191428Y-270256000D01*
X80046285Y-270183429D01*
X79755999Y-270183429D01*
X79610856Y-270256000D01*
X80263999Y-271126857D02*
X80118856Y-271199429D01*
X79755999Y-271199429D01*
X79610856Y-271126857D01*
X79538285Y-270981714D01*
X79538285Y-270836571D01*
X79610856Y-270691429D01*
X79755999Y-270618857D01*
X80118856Y-270618857D01*
X80263999Y-270546286D01*
X80989713Y-271199429D02*
X80989713Y-269675429D01*
X80989713Y-270256000D02*
X81134856Y-270183429D01*
X81425142Y-270183429D01*
X81570285Y-270256000D01*
X81642856Y-270328571D01*
X81715427Y-270473714D01*
X81715427Y-270909143D01*
X81642856Y-271054286D01*
X81570285Y-271126857D01*
X81425142Y-271199429D01*
X81134856Y-271199429D01*
X80989713Y-271126857D01*
X83457142Y-269820571D02*
X83529713Y-269748000D01*
X83674856Y-269675429D01*
X84037713Y-269675429D01*
X84182856Y-269748000D01*
X84255427Y-269820571D01*
X84327999Y-269965714D01*
X84327999Y-270110857D01*
X84255427Y-270328571D01*
X83384570Y-271199429D01*
X84327999Y-271199429D01*
X85271428Y-269675429D02*
X85416571Y-269675429D01*
X85561714Y-269748000D01*
X85634285Y-269820571D01*
X85706856Y-269965714D01*
X85779428Y-270256000D01*
X85779428Y-270618857D01*
X85706856Y-270909143D01*
X85634285Y-271054286D01*
X85561714Y-271126857D01*
X85416571Y-271199429D01*
X85271428Y-271199429D01*
X85126285Y-271126857D01*
X85053714Y-271054286D01*
X84981142Y-270909143D01*
X84908571Y-270618857D01*
X84908571Y-270256000D01*
X84981142Y-269965714D01*
X85053714Y-269820571D01*
X85126285Y-269748000D01*
X85271428Y-269675429D01*
X87230857Y-271199429D02*
X86360000Y-271199429D01*
X86795428Y-271199429D02*
X86795428Y-269675429D01*
X86650285Y-269893143D01*
X86505143Y-270038286D01*
X86360000Y-270110857D01*
X88101714Y-270328571D02*
X87956572Y-270256000D01*
X87884000Y-270183429D01*
X87811429Y-270038286D01*
X87811429Y-269965714D01*
X87884000Y-269820571D01*
X87956572Y-269748000D01*
X88101714Y-269675429D01*
X88392000Y-269675429D01*
X88537143Y-269748000D01*
X88609714Y-269820571D01*
X88682286Y-269965714D01*
X88682286Y-270038286D01*
X88609714Y-270183429D01*
X88537143Y-270256000D01*
X88392000Y-270328571D01*
X88101714Y-270328571D01*
X87956572Y-270401143D01*
X87884000Y-270473714D01*
X87811429Y-270618857D01*
X87811429Y-270909143D01*
X87884000Y-271054286D01*
X87956572Y-271126857D01*
X88101714Y-271199429D01*
X88392000Y-271199429D01*
X88537143Y-271126857D01*
X88609714Y-271054286D01*
X88682286Y-270909143D01*
X88682286Y-270618857D01*
X88609714Y-270473714D01*
X88537143Y-270401143D01*
X88392000Y-270328571D01*
D12*
X132080000Y-279146000D02*
X132080000Y-269494000D01*
X152400000Y-269494000D02*
X132080000Y-269494000D01*
X152400000Y-279146000D02*
X132080000Y-279146000D01*
X172720000Y-279146000D02*
X152400000Y-279146000D01*
X152400000Y-269494000D02*
X172720000Y-269494000D01*
X172720000Y-269494000D02*
X172720000Y-279146000D01*
X169461180Y-267020040D02*
X166458900Y-267020040D01*
X167924480Y-268831060D02*
X169448480Y-267053060D01*
X166400480Y-267055600D02*
X167924480Y-268833600D01*
D11*
X244253527Y-209615296D02*
X242189777Y-213189815D01*
X237214473Y-205551296D02*
X235150723Y-209125815D01*
X235150723Y-209125815D02*
X242189777Y-213189815D01*
X239771209Y-208493898D02*
X238341401Y-207668398D01*
X240871062Y-209128898D02*
X242135892Y-209859148D01*
X241220312Y-208523979D02*
X240490062Y-209788809D01*
X239794452Y-208580640D02*
X240458312Y-209843802D01*
X239826202Y-208525648D02*
X241252062Y-208468986D01*
X240270702Y-207755751D02*
X239381702Y-209295544D01*
X237214473Y-205551296D02*
X244253527Y-209615296D01*
X219985527Y-205551296D02*
X222049277Y-209125815D01*
X212946473Y-209615296D02*
X215010223Y-213189815D01*
X215010223Y-213189815D02*
X222049277Y-209125815D01*
X216773209Y-208872398D02*
X215343401Y-209697898D01*
X217873062Y-208237398D02*
X219137892Y-207507148D01*
X217523812Y-207632479D02*
X218254062Y-208897309D01*
X216859952Y-208895640D02*
X218285812Y-208952302D01*
X216828202Y-208840648D02*
X217492062Y-207577486D01*
X216383702Y-208070751D02*
X217272702Y-209610544D01*
X212946473Y-209615296D02*
X219985527Y-205551296D01*
X231553527Y-133415296D02*
X229489777Y-136989815D01*
X224514473Y-129351296D02*
X222450723Y-132925815D01*
X222450723Y-132925815D02*
X229489777Y-136989815D01*
X227071209Y-132293898D02*
X225641401Y-131468398D01*
X228171062Y-132928898D02*
X229435892Y-133659148D01*
X228520312Y-132323979D02*
X227790062Y-133588809D01*
X227094452Y-132380640D02*
X227758312Y-133643802D01*
X227126202Y-132325648D02*
X228552062Y-132268986D01*
X227570702Y-131555751D02*
X226681702Y-133095544D01*
X224514473Y-129351296D02*
X231553527Y-133415296D01*
X207285527Y-129351296D02*
X209349277Y-132925815D01*
X200246473Y-133415296D02*
X202310223Y-136989815D01*
X202310223Y-136989815D02*
X209349277Y-132925815D01*
X204073209Y-132672398D02*
X202643401Y-133497898D01*
X205173062Y-132037398D02*
X206437892Y-131307148D01*
X204823812Y-131432479D02*
X205554062Y-132697309D01*
X204159952Y-132695640D02*
X205585812Y-132752302D01*
X204128202Y-132640648D02*
X204792062Y-131377486D01*
X203683702Y-131870751D02*
X204572702Y-133410544D01*
X200246473Y-133415296D02*
X207285527Y-129351296D01*
X244253527Y-57215296D02*
X242189777Y-60789815D01*
X237214473Y-53151296D02*
X235150723Y-56725815D01*
X235150723Y-56725815D02*
X242189777Y-60789815D01*
X239771209Y-56093898D02*
X238341401Y-55268398D01*
X240871062Y-56728898D02*
X242135892Y-57459148D01*
X241220312Y-56123979D02*
X240490062Y-57388809D01*
X239794452Y-56180640D02*
X240458312Y-57443802D01*
X239826202Y-56125648D02*
X241252062Y-56068986D01*
X240270702Y-55355751D02*
X239381702Y-56895544D01*
X237214473Y-53151296D02*
X244253527Y-57215296D01*
X219985527Y-53151296D02*
X222049277Y-56725815D01*
X212946473Y-57215296D02*
X215010223Y-60789815D01*
X215010223Y-60789815D02*
X222049277Y-56725815D01*
X216773209Y-56472398D02*
X215343401Y-57297898D01*
X217873062Y-55837398D02*
X219137892Y-55107148D01*
X217523812Y-55232479D02*
X218254062Y-56497309D01*
X216859952Y-56495640D02*
X218285812Y-56552302D01*
X216828202Y-56440648D02*
X217492062Y-55177486D01*
X216383702Y-55670751D02*
X217272702Y-57210544D01*
X212946473Y-57215296D02*
X219985527Y-53151296D01*
X168053527Y-209615296D02*
X165989777Y-213189815D01*
X161014473Y-205551296D02*
X158950723Y-209125815D01*
X158950723Y-209125815D02*
X165989777Y-213189815D01*
X163571209Y-208493898D02*
X162141401Y-207668398D01*
X164671062Y-209128898D02*
X165935892Y-209859148D01*
X165020312Y-208523979D02*
X164290062Y-209788809D01*
X163594452Y-208580640D02*
X164258312Y-209843802D01*
X163626202Y-208525648D02*
X165052062Y-208468986D01*
X164070702Y-207755751D02*
X163181702Y-209295544D01*
X161014473Y-205551296D02*
X168053527Y-209615296D01*
X143785527Y-205551296D02*
X145849277Y-209125815D01*
X136746473Y-209615296D02*
X138810223Y-213189815D01*
X138810223Y-213189815D02*
X145849277Y-209125815D01*
X140573209Y-208872398D02*
X139143401Y-209697898D01*
X141673062Y-208237398D02*
X142937892Y-207507148D01*
X141323812Y-207632479D02*
X142054062Y-208897309D01*
X140659952Y-208895640D02*
X142085812Y-208952302D01*
X140628202Y-208840648D02*
X141292062Y-207577486D01*
X140183702Y-208070751D02*
X141072702Y-209610544D01*
X136746473Y-209615296D02*
X143785527Y-205551296D01*
X168053527Y-133415296D02*
X165989777Y-136989815D01*
X161014473Y-129351296D02*
X158950723Y-132925815D01*
X158950723Y-132925815D02*
X165989777Y-136989815D01*
X163571209Y-132293898D02*
X162141401Y-131468398D01*
X164671062Y-132928898D02*
X165935892Y-133659148D01*
X165020312Y-132323979D02*
X164290062Y-133588809D01*
X163594452Y-132380640D02*
X164258312Y-133643802D01*
X163626202Y-132325648D02*
X165052062Y-132268986D01*
X164070702Y-131555751D02*
X163181702Y-133095544D01*
X161014473Y-129351296D02*
X168053527Y-133415296D01*
X67585527Y-53151296D02*
X69649277Y-56725815D01*
X60546473Y-57215296D02*
X62610223Y-60789815D01*
X62610223Y-60789815D02*
X69649277Y-56725815D01*
X64373209Y-56472398D02*
X62943401Y-57297898D01*
X65473062Y-55837398D02*
X66737892Y-55107148D01*
X65123812Y-55232479D02*
X65854062Y-56497309D01*
X64459952Y-56495640D02*
X65885812Y-56552302D01*
X64428202Y-56440648D02*
X65092062Y-55177486D01*
X63983702Y-55670751D02*
X64872702Y-57210544D01*
X60546473Y-57215296D02*
X67585527Y-53151296D01*
X91853527Y-57215296D02*
X89789777Y-60789815D01*
X84814473Y-53151296D02*
X82750723Y-56725815D01*
X82750723Y-56725815D02*
X89789777Y-60789815D01*
X87371209Y-56093898D02*
X85941401Y-55268398D01*
X88471062Y-56728898D02*
X89735892Y-57459148D01*
X88820312Y-56123979D02*
X88090062Y-57388809D01*
X87394452Y-56180640D02*
X88058312Y-57443802D01*
X87426202Y-56125648D02*
X88852062Y-56068986D01*
X87870702Y-55355751D02*
X86981702Y-56895544D01*
X84814473Y-53151296D02*
X91853527Y-57215296D01*
X67585527Y-129351296D02*
X69649277Y-132925815D01*
X60546473Y-133415296D02*
X62610223Y-136989815D01*
X62610223Y-136989815D02*
X69649277Y-132925815D01*
X64373209Y-132672398D02*
X62943401Y-133497898D01*
X65473062Y-132037398D02*
X66737892Y-131307148D01*
X65123812Y-131432479D02*
X65854062Y-132697309D01*
X64459952Y-132695640D02*
X65885812Y-132752302D01*
X64428202Y-132640648D02*
X65092062Y-131377486D01*
X63983702Y-131870751D02*
X64872702Y-133410544D01*
X60546473Y-133415296D02*
X67585527Y-129351296D01*
X91853527Y-133415296D02*
X89789777Y-136989815D01*
X84814473Y-129351296D02*
X82750723Y-132925815D01*
X82750723Y-132925815D02*
X89789777Y-136989815D01*
X87371209Y-132293898D02*
X85941401Y-131468398D01*
X88471062Y-132928898D02*
X89735892Y-133659148D01*
X88820312Y-132323979D02*
X88090062Y-133588809D01*
X87394452Y-132380640D02*
X88058312Y-133643802D01*
X87426202Y-132325648D02*
X88852062Y-132268986D01*
X87870702Y-131555751D02*
X86981702Y-133095544D01*
X84814473Y-129351296D02*
X91853527Y-133415296D01*
X67585527Y-205551296D02*
X69649277Y-209125815D01*
X60546473Y-209615296D02*
X62610223Y-213189815D01*
X62610223Y-213189815D02*
X69649277Y-209125815D01*
X64373209Y-208872398D02*
X62943401Y-209697898D01*
X65473062Y-208237398D02*
X66737892Y-207507148D01*
X65123812Y-207632479D02*
X65854062Y-208897309D01*
X64459952Y-208895640D02*
X65885812Y-208952302D01*
X64428202Y-208840648D02*
X65092062Y-207577486D01*
X63983702Y-208070751D02*
X64872702Y-209610544D01*
X60546473Y-209615296D02*
X67585527Y-205551296D01*
X91853527Y-209615296D02*
X89789777Y-213189815D01*
X84814473Y-205551296D02*
X82750723Y-209125815D01*
X82750723Y-209125815D02*
X89789777Y-213189815D01*
X87371209Y-208493898D02*
X85941401Y-207668398D01*
X88471062Y-209128898D02*
X89735892Y-209859148D01*
X88820312Y-208523979D02*
X88090062Y-209788809D01*
X87394452Y-208580640D02*
X88058312Y-209843802D01*
X87426202Y-208525648D02*
X88852062Y-208468986D01*
X87870702Y-207755751D02*
X86981702Y-209295544D01*
X84814473Y-205551296D02*
X91853527Y-209615296D01*
X143785527Y-53151296D02*
X145849277Y-56725815D01*
X136746473Y-57215296D02*
X138810223Y-60789815D01*
X138810223Y-60789815D02*
X145849277Y-56725815D01*
X140573209Y-56472398D02*
X139143401Y-57297898D01*
X141673062Y-55837398D02*
X142937892Y-55107148D01*
X141323812Y-55232479D02*
X142054062Y-56497309D01*
X140659952Y-56495640D02*
X142085812Y-56552302D01*
X140628202Y-56440648D02*
X141292062Y-55177486D01*
X140183702Y-55670751D02*
X141072702Y-57210544D01*
X136746473Y-57215296D02*
X143785527Y-53151296D01*
X168053527Y-57215296D02*
X165989777Y-60789815D01*
X161014473Y-53151296D02*
X158950723Y-56725815D01*
X158950723Y-56725815D02*
X165989777Y-60789815D01*
X163571209Y-56093898D02*
X162141401Y-55268398D01*
X164671062Y-56728898D02*
X165935892Y-57459148D01*
X165020312Y-56123979D02*
X164290062Y-57388809D01*
X163594452Y-56180640D02*
X164258312Y-57443802D01*
X163626202Y-56125648D02*
X165052062Y-56068986D01*
X164070702Y-55355751D02*
X163181702Y-56895544D01*
X161014473Y-53151296D02*
X168053527Y-57215296D01*
X143785527Y-129351296D02*
X145849277Y-132925815D01*
X136746473Y-133415296D02*
X138810223Y-136989815D01*
X138810223Y-136989815D02*
X145849277Y-132925815D01*
X140573209Y-132672398D02*
X139143401Y-133497898D01*
X141673062Y-132037398D02*
X142937892Y-131307148D01*
X141323812Y-131432479D02*
X142054062Y-132697309D01*
X140659952Y-132695640D02*
X142085812Y-132752302D01*
X140628202Y-132640648D02*
X141292062Y-131377486D01*
X140183702Y-131870751D02*
X141072702Y-133410544D01*
X136746473Y-133415296D02*
X143785527Y-129351296D01*
D13*
X130022600Y-273561629D02*
X130022600Y-274650200D01*
X129950028Y-274867914D01*
X129804885Y-275013057D01*
X129587171Y-275085629D01*
X129442028Y-275085629D01*
X131546600Y-275085629D02*
X130675743Y-275085629D01*
X131111171Y-275085629D02*
X131111171Y-273561629D01*
X130966028Y-273779343D01*
X130820886Y-273924486D01*
X130675743Y-273997057D01*
D11*
X136192381Y-277047476D02*
X136252857Y-276987000D01*
X136373809Y-276926524D01*
X136676190Y-276926524D01*
X136797143Y-276987000D01*
X136857619Y-277047476D01*
X136918095Y-277168429D01*
X136918095Y-277289381D01*
X136857619Y-277470810D01*
X136131905Y-278196524D01*
X136918095Y-278196524D01*
X138006667Y-276926524D02*
X137764762Y-276926524D01*
X137643810Y-276987000D01*
X137583333Y-277047476D01*
X137462381Y-277228905D01*
X137401905Y-277470810D01*
X137401905Y-277954619D01*
X137462381Y-278075571D01*
X137522857Y-278136048D01*
X137643810Y-278196524D01*
X137885714Y-278196524D01*
X138006667Y-278136048D01*
X138067143Y-278075571D01*
X138127619Y-277954619D01*
X138127619Y-277652238D01*
X138067143Y-277531286D01*
X138006667Y-277470810D01*
X137885714Y-277410333D01*
X137643810Y-277410333D01*
X137522857Y-277470810D01*
X137462381Y-277531286D01*
X137401905Y-277652238D01*
X136192381Y-270443476D02*
X136252857Y-270383000D01*
X136373809Y-270322524D01*
X136676190Y-270322524D01*
X136797143Y-270383000D01*
X136857619Y-270443476D01*
X136918095Y-270564429D01*
X136918095Y-270685381D01*
X136857619Y-270866810D01*
X136131905Y-271592524D01*
X136918095Y-271592524D01*
X138067143Y-270322524D02*
X137462381Y-270322524D01*
X137401905Y-270927286D01*
X137462381Y-270866810D01*
X137583333Y-270806333D01*
X137885714Y-270806333D01*
X138006667Y-270866810D01*
X138067143Y-270927286D01*
X138127619Y-271048238D01*
X138127619Y-271350619D01*
X138067143Y-271471571D01*
X138006667Y-271532048D01*
X137885714Y-271592524D01*
X137583333Y-271592524D01*
X137462381Y-271532048D01*
X137401905Y-271471571D01*
X167297463Y-276945876D02*
X167357939Y-276885400D01*
X167478891Y-276824924D01*
X167781272Y-276824924D01*
X167902225Y-276885400D01*
X167962701Y-276945876D01*
X168023177Y-277066829D01*
X168023177Y-277187781D01*
X167962701Y-277369210D01*
X167236987Y-278094924D01*
X168023177Y-278094924D01*
D14*
X240834323Y-205558962D02*
X241215323Y-204899050D01*
X241372444Y-204989764D01*
X241448574Y-205075617D01*
X241475138Y-205174752D01*
X241470275Y-205255743D01*
X241429128Y-205399584D01*
X241374700Y-205493857D01*
X241270704Y-205601411D01*
X241202995Y-205646117D01*
X241103859Y-205672680D01*
X240991444Y-205649676D01*
X240834323Y-205558962D01*
X241839901Y-206139533D02*
X241462809Y-205921819D01*
X241651355Y-206030676D02*
X242032355Y-205370764D01*
X241915078Y-205428752D01*
X241815943Y-205455315D01*
X241734952Y-205450454D01*
X242434708Y-205980155D02*
X242390002Y-205912445D01*
X242376721Y-205862878D01*
X242381582Y-205781886D01*
X242399725Y-205750462D01*
X242467435Y-205705756D01*
X242517002Y-205692474D01*
X242597994Y-205697336D01*
X242723691Y-205769907D01*
X242768397Y-205837617D01*
X242781678Y-205887185D01*
X242776816Y-205968176D01*
X242758673Y-205999600D01*
X242690964Y-206044306D01*
X242641397Y-206057588D01*
X242560405Y-206052727D01*
X242434708Y-205980155D01*
X242353716Y-205975293D01*
X242304149Y-205988575D01*
X242236439Y-206033281D01*
X242163868Y-206158978D01*
X242159006Y-206239970D01*
X242172287Y-206289537D01*
X242216994Y-206357247D01*
X242342691Y-206429819D01*
X242423682Y-206434680D01*
X242473250Y-206421399D01*
X242540959Y-206376692D01*
X242613530Y-206250995D01*
X242618393Y-206170004D01*
X242605111Y-206120436D01*
X242560405Y-206052727D01*
X214763037Y-206484247D02*
X214382037Y-205824335D01*
X214539158Y-205733621D01*
X214651574Y-205710617D01*
X214750709Y-205737180D01*
X214818418Y-205781886D01*
X214922414Y-205889441D01*
X214976843Y-205983714D01*
X215017990Y-206127554D01*
X215022852Y-206208545D01*
X214996288Y-206307680D01*
X214920158Y-206393533D01*
X214763037Y-206484247D01*
X215768615Y-205903676D02*
X215391523Y-206121390D01*
X215580069Y-206012533D02*
X215199069Y-205352621D01*
X215190649Y-205483180D01*
X215164086Y-205582315D01*
X215119381Y-205650025D01*
X215607586Y-205116764D02*
X216047527Y-204862764D01*
X216145708Y-205685961D01*
X228134323Y-129358962D02*
X228515323Y-128699050D01*
X228672444Y-128789764D01*
X228748574Y-128875617D01*
X228775138Y-128974752D01*
X228770275Y-129055743D01*
X228729128Y-129199584D01*
X228674700Y-129293857D01*
X228570704Y-129401411D01*
X228502995Y-129446117D01*
X228403859Y-129472680D01*
X228291444Y-129449676D01*
X228134323Y-129358962D01*
X229139901Y-129939533D02*
X228762809Y-129721819D01*
X228951355Y-129830676D02*
X229332355Y-129170764D01*
X229215078Y-129228752D01*
X229115943Y-129255315D01*
X229034952Y-129250454D01*
X230086540Y-129606193D02*
X229960842Y-129533621D01*
X229879851Y-129528760D01*
X229830283Y-129542042D01*
X229713006Y-129600029D01*
X229609010Y-129707584D01*
X229463868Y-129958978D01*
X229459006Y-130039970D01*
X229472287Y-130089537D01*
X229516994Y-130157247D01*
X229642691Y-130229819D01*
X229723682Y-130234680D01*
X229773250Y-130221399D01*
X229840959Y-130176692D01*
X229931673Y-130019571D01*
X229936536Y-129938579D01*
X229923254Y-129889012D01*
X229878548Y-129821302D01*
X229752851Y-129748731D01*
X229671859Y-129743869D01*
X229622292Y-129757151D01*
X229554582Y-129801857D01*
X202063037Y-130284247D02*
X201682037Y-129624335D01*
X201839158Y-129533621D01*
X201951574Y-129510617D01*
X202050709Y-129537180D01*
X202118418Y-129581886D01*
X202222414Y-129689441D01*
X202276843Y-129783714D01*
X202317990Y-129927554D01*
X202322852Y-130008545D01*
X202296288Y-130107680D01*
X202220158Y-130193533D01*
X202063037Y-130284247D01*
X203068615Y-129703676D02*
X202691523Y-129921390D01*
X202880069Y-129812533D02*
X202499069Y-129152621D01*
X202490649Y-129283180D01*
X202464086Y-129382315D01*
X202419381Y-129450025D01*
X203284678Y-128699050D02*
X202970435Y-128880478D01*
X203120439Y-129212865D01*
X203133721Y-129163298D01*
X203178426Y-129095588D01*
X203335548Y-129004873D01*
X203416540Y-129000012D01*
X203466107Y-129013293D01*
X203533816Y-129058000D01*
X203624530Y-129215121D01*
X203629393Y-129296113D01*
X203616111Y-129345680D01*
X203571405Y-129413390D01*
X203414283Y-129504104D01*
X203333292Y-129508966D01*
X203283725Y-129495684D01*
X240834323Y-53158962D02*
X241215323Y-52499050D01*
X241372444Y-52589764D01*
X241448574Y-52675617D01*
X241475138Y-52774752D01*
X241470275Y-52855743D01*
X241429128Y-52999584D01*
X241374700Y-53093857D01*
X241270704Y-53201411D01*
X241202995Y-53246117D01*
X241103859Y-53272680D01*
X240991444Y-53249676D01*
X240834323Y-53158962D01*
X241839901Y-53739533D02*
X241462809Y-53521819D01*
X241651355Y-53630676D02*
X242032355Y-52970764D01*
X241915078Y-53028752D01*
X241815943Y-53055315D01*
X241734952Y-53050454D01*
X242659540Y-53626163D02*
X242405540Y-54066104D01*
X242647560Y-53284054D02*
X242218296Y-53664705D01*
X242626813Y-53900562D01*
X214763037Y-54084247D02*
X214382037Y-53424335D01*
X214539158Y-53333621D01*
X214651574Y-53310617D01*
X214750709Y-53337180D01*
X214818418Y-53381886D01*
X214922414Y-53489441D01*
X214976843Y-53583714D01*
X215017990Y-53727554D01*
X215022852Y-53808545D01*
X214996288Y-53907680D01*
X214920158Y-53993533D01*
X214763037Y-54084247D01*
X215768615Y-53503676D02*
X215391523Y-53721390D01*
X215580069Y-53612533D02*
X215199069Y-52952621D01*
X215190649Y-53083180D01*
X215164086Y-53182315D01*
X215119381Y-53250025D01*
X215607586Y-52716764D02*
X216016102Y-52480907D01*
X215941274Y-52859302D01*
X216035548Y-52804873D01*
X216116540Y-52800012D01*
X216166107Y-52813293D01*
X216233816Y-52858000D01*
X216324530Y-53015121D01*
X216329393Y-53096113D01*
X216316111Y-53145680D01*
X216271405Y-53213390D01*
X216082859Y-53322247D01*
X216001868Y-53327109D01*
X215952300Y-53313827D01*
X164634323Y-205558962D02*
X165015323Y-204899050D01*
X165172444Y-204989764D01*
X165248574Y-205075617D01*
X165275138Y-205174752D01*
X165270275Y-205255743D01*
X165229128Y-205399584D01*
X165174700Y-205493857D01*
X165070704Y-205601411D01*
X165002995Y-205646117D01*
X164903859Y-205672680D01*
X164791444Y-205649676D01*
X164634323Y-205558962D01*
X165639901Y-206139533D02*
X165262809Y-205921819D01*
X165451355Y-206030676D02*
X165832355Y-205370764D01*
X165715078Y-205428752D01*
X165615943Y-205455315D01*
X165534952Y-205450454D01*
X166236010Y-205687613D02*
X166285578Y-205674332D01*
X166366569Y-205679193D01*
X166523691Y-205769907D01*
X166568397Y-205837617D01*
X166581678Y-205887185D01*
X166576816Y-205968176D01*
X166540530Y-206031025D01*
X166454678Y-206107155D01*
X165859872Y-206266533D01*
X166268388Y-206502390D01*
X138563037Y-206484247D02*
X138182037Y-205824335D01*
X138339158Y-205733621D01*
X138451574Y-205710617D01*
X138550709Y-205737180D01*
X138618418Y-205781886D01*
X138722414Y-205889441D01*
X138776843Y-205983714D01*
X138817990Y-206127554D01*
X138822852Y-206208545D01*
X138796288Y-206307680D01*
X138720158Y-206393533D01*
X138563037Y-206484247D01*
X139568615Y-205903676D02*
X139191523Y-206121390D01*
X139380069Y-206012533D02*
X138999069Y-205352621D01*
X138990649Y-205483180D01*
X138964086Y-205582315D01*
X138919381Y-205650025D01*
X140197102Y-205540819D02*
X139820010Y-205758533D01*
X140008556Y-205649676D02*
X139627556Y-204989764D01*
X139619136Y-205120323D01*
X139592573Y-205219458D01*
X139547868Y-205287168D01*
X164634323Y-129358962D02*
X165015323Y-128699050D01*
X165172444Y-128789764D01*
X165248574Y-128875617D01*
X165275138Y-128974752D01*
X165270275Y-129055743D01*
X165229128Y-129199584D01*
X165174700Y-129293857D01*
X165070704Y-129401411D01*
X165002995Y-129446117D01*
X164903859Y-129472680D01*
X164791444Y-129449676D01*
X164634323Y-129358962D01*
X165639901Y-129939533D02*
X165262809Y-129721819D01*
X165451355Y-129830676D02*
X165832355Y-129170764D01*
X165715078Y-129228752D01*
X165615943Y-129255315D01*
X165534952Y-129250454D01*
X166429417Y-129515478D02*
X166492267Y-129551764D01*
X166536972Y-129619474D01*
X166550254Y-129669042D01*
X166545393Y-129750033D01*
X166504245Y-129893873D01*
X166413530Y-130050995D01*
X166309536Y-130158550D01*
X166241825Y-130203256D01*
X166192257Y-130216537D01*
X166111267Y-130211676D01*
X166048417Y-130175390D01*
X166003712Y-130107680D01*
X165990430Y-130058113D01*
X165995292Y-129977121D01*
X166036439Y-129833281D01*
X166127153Y-129676159D01*
X166231149Y-129568605D01*
X166298859Y-129523899D01*
X166348426Y-129510617D01*
X166429417Y-129515478D01*
X62677280Y-53902818D02*
X62296280Y-53242907D01*
X62453401Y-53152193D01*
X62565817Y-53129189D01*
X62664952Y-53155751D01*
X62732662Y-53200458D01*
X62836658Y-53308012D01*
X62891086Y-53402285D01*
X62932233Y-53546126D01*
X62937095Y-53627117D01*
X62910532Y-53726252D01*
X62834401Y-53812104D01*
X62677280Y-53902818D01*
X63682859Y-53322247D02*
X63305767Y-53539961D01*
X63494313Y-53431104D02*
X63113313Y-52771193D01*
X63104893Y-52901751D01*
X63078330Y-53000886D01*
X63033624Y-53068596D01*
X88748566Y-53340390D02*
X89129566Y-52680479D01*
X89286687Y-52771193D01*
X89362817Y-52857046D01*
X89389381Y-52956180D01*
X89384519Y-53037172D01*
X89343372Y-53181012D01*
X89288943Y-53275285D01*
X89184947Y-53382840D01*
X89117238Y-53427546D01*
X89018103Y-53454109D01*
X88905687Y-53431104D01*
X88748566Y-53340390D01*
X89721767Y-53106185D02*
X89771334Y-53092903D01*
X89852326Y-53097764D01*
X90009448Y-53188479D01*
X90054153Y-53256189D01*
X90067435Y-53305756D01*
X90062573Y-53386747D01*
X90026287Y-53449596D01*
X89940435Y-53525727D01*
X89345628Y-53685104D01*
X89754145Y-53920961D01*
X62677280Y-130102818D02*
X62296280Y-129442907D01*
X62453401Y-129352193D01*
X62565817Y-129329189D01*
X62664952Y-129355751D01*
X62732662Y-129400458D01*
X62836658Y-129508012D01*
X62891086Y-129602285D01*
X62932233Y-129746126D01*
X62937095Y-129827117D01*
X62910532Y-129926252D01*
X62834401Y-130012104D01*
X62677280Y-130102818D01*
X62893342Y-129098193D02*
X63301859Y-128862336D01*
X63227031Y-129240731D01*
X63321305Y-129186302D01*
X63402296Y-129181441D01*
X63451863Y-129194722D01*
X63519573Y-129239428D01*
X63610287Y-129396550D01*
X63615149Y-129477541D01*
X63601868Y-129527109D01*
X63557162Y-129594818D01*
X63368615Y-129703676D01*
X63287624Y-129708537D01*
X63238057Y-129695256D01*
X88748566Y-129540390D02*
X89129566Y-128880479D01*
X89286687Y-128971193D01*
X89362817Y-129057046D01*
X89389381Y-129156180D01*
X89384519Y-129237172D01*
X89343372Y-129381012D01*
X89288943Y-129475285D01*
X89184947Y-129582840D01*
X89117238Y-129627546D01*
X89018103Y-129654109D01*
X88905687Y-129631104D01*
X88748566Y-129540390D01*
X89945296Y-129644735D02*
X89691296Y-130084676D01*
X89933317Y-129302626D02*
X89504053Y-129683277D01*
X89912569Y-129919134D01*
X62677280Y-206302818D02*
X62296280Y-205642907D01*
X62453401Y-205552193D01*
X62565817Y-205529189D01*
X62664952Y-205555751D01*
X62732662Y-205600458D01*
X62836658Y-205708012D01*
X62891086Y-205802285D01*
X62932233Y-205946126D01*
X62937095Y-206027117D01*
X62910532Y-206126252D01*
X62834401Y-206212104D01*
X62677280Y-206302818D01*
X63270435Y-205080478D02*
X62956191Y-205261907D01*
X63106195Y-205594293D01*
X63119477Y-205544726D01*
X63164183Y-205477016D01*
X63321305Y-205386302D01*
X63402296Y-205381441D01*
X63451863Y-205394722D01*
X63519573Y-205439428D01*
X63610287Y-205596550D01*
X63615149Y-205677541D01*
X63601868Y-205727109D01*
X63557162Y-205794818D01*
X63400040Y-205885533D01*
X63319049Y-205890394D01*
X63269481Y-205877113D01*
X88748566Y-205740390D02*
X89129566Y-205080479D01*
X89286687Y-205171193D01*
X89362817Y-205257046D01*
X89389381Y-205356180D01*
X89384519Y-205437172D01*
X89343372Y-205581012D01*
X89288943Y-205675285D01*
X89184947Y-205782840D01*
X89117238Y-205827546D01*
X89018103Y-205854109D01*
X88905687Y-205831104D01*
X88748566Y-205740390D01*
X90072296Y-205624764D02*
X89946599Y-205552193D01*
X89865607Y-205547332D01*
X89816040Y-205560613D01*
X89698763Y-205618601D01*
X89594767Y-205726155D01*
X89449624Y-205977550D01*
X89444763Y-206058542D01*
X89458044Y-206108109D01*
X89502750Y-206175819D01*
X89628448Y-206248390D01*
X89709439Y-206253252D01*
X89759006Y-206239970D01*
X89826716Y-206195264D01*
X89917430Y-206038142D01*
X89922292Y-205957151D01*
X89909010Y-205907584D01*
X89864305Y-205839874D01*
X89738607Y-205767302D01*
X89657615Y-205762441D01*
X89608049Y-205775722D01*
X89540338Y-205820428D01*
X138877280Y-53902818D02*
X138496280Y-53242907D01*
X138653401Y-53152193D01*
X138765817Y-53129189D01*
X138864952Y-53155751D01*
X138932662Y-53200458D01*
X139036658Y-53308012D01*
X139091086Y-53402285D01*
X139132233Y-53546126D01*
X139137095Y-53627117D01*
X139110532Y-53726252D01*
X139034401Y-53812104D01*
X138877280Y-53902818D01*
X139093342Y-52898193D02*
X139533283Y-52644193D01*
X139631464Y-53467390D01*
X164948566Y-53340390D02*
X165329566Y-52680479D01*
X165486687Y-52771193D01*
X165562817Y-52857046D01*
X165589381Y-52956180D01*
X165584519Y-53037172D01*
X165543372Y-53181012D01*
X165488943Y-53275285D01*
X165384947Y-53382840D01*
X165317238Y-53427546D01*
X165218103Y-53454109D01*
X165105687Y-53431104D01*
X164948566Y-53340390D01*
X165920464Y-53398727D02*
X165875758Y-53331016D01*
X165862477Y-53281449D01*
X165867338Y-53200458D01*
X165885481Y-53169033D01*
X165953191Y-53124328D01*
X166002758Y-53111046D01*
X166083750Y-53115907D01*
X166209448Y-53188479D01*
X166254153Y-53256189D01*
X166267435Y-53305756D01*
X166262573Y-53386747D01*
X166244430Y-53418172D01*
X166176721Y-53462878D01*
X166127153Y-53476159D01*
X166046162Y-53471298D01*
X165920464Y-53398727D01*
X165839473Y-53393865D01*
X165789906Y-53407147D01*
X165722195Y-53451853D01*
X165649624Y-53577550D01*
X165644763Y-53658542D01*
X165658044Y-53708109D01*
X165702750Y-53775819D01*
X165828448Y-53848390D01*
X165909439Y-53853252D01*
X165959006Y-53839970D01*
X166026716Y-53795264D01*
X166099287Y-53669567D01*
X166104149Y-53588575D01*
X166090868Y-53539008D01*
X166046162Y-53471298D01*
X138877280Y-130102818D02*
X138496280Y-129442907D01*
X138653401Y-129352193D01*
X138765817Y-129329189D01*
X138864952Y-129355751D01*
X138932662Y-129400458D01*
X139036658Y-129508012D01*
X139091086Y-129602285D01*
X139132233Y-129746126D01*
X139137095Y-129827117D01*
X139110532Y-129926252D01*
X139034401Y-130012104D01*
X138877280Y-130102818D01*
X139568615Y-129703676D02*
X139694313Y-129631104D01*
X139739019Y-129563394D01*
X139752300Y-129513827D01*
X139760721Y-129383268D01*
X139719573Y-129239428D01*
X139574430Y-128988033D01*
X139506721Y-128943327D01*
X139457153Y-128930046D01*
X139376162Y-128934907D01*
X139250464Y-129007478D01*
X139205758Y-129075189D01*
X139192477Y-129124756D01*
X139197338Y-129205747D01*
X139288053Y-129362869D01*
X139355763Y-129407575D01*
X139405330Y-129420857D01*
X139486322Y-129415995D01*
X139612019Y-129343424D01*
X139656725Y-129275714D01*
X139670006Y-129226146D01*
X139665145Y-129145155D01*
M02*
