G04 #@! TF.FileFunction,Soldermask,Top*
%FSLAX46Y46*%
G04 Gerber Fmt 4.6, Leading zero omitted, Abs format (unit mm)*
G04 Created by KiCad (PCBNEW 4.0.7-e2-6376~58~ubuntu16.04.1) date Mon Sep 23 14:36:03 2019*
%MOMM*%
%LPD*%
G01*
G04 APERTURE LIST*
%ADD10C,0.100000*%
%ADD11C,7.689800*%
%ADD12R,2.178000X2.178000*%
%ADD13C,2.178000*%
%ADD14C,1.670000*%
G04 APERTURE END LIST*
D10*
D11*
X38100000Y-38100000D03*
X266700000Y-38100000D03*
X266700000Y-266700000D03*
X38100000Y-266700000D03*
D12*
X167640000Y-273050000D03*
D13*
X167640000Y-275590000D03*
X165100000Y-273050000D03*
X165100000Y-275590000D03*
X162560000Y-273050000D03*
X162560000Y-275590000D03*
X160020000Y-273050000D03*
X160020000Y-275590000D03*
X157480000Y-273050000D03*
X157480000Y-275590000D03*
X154940000Y-273050000D03*
X154940000Y-275590000D03*
X152400000Y-273050000D03*
X152400000Y-275590000D03*
X149860000Y-273050000D03*
X149860000Y-275590000D03*
X147320000Y-273050000D03*
X147320000Y-275590000D03*
X144780000Y-273050000D03*
X144780000Y-275590000D03*
X142240000Y-273050000D03*
X142240000Y-275590000D03*
X139700000Y-273050000D03*
X139700000Y-275590000D03*
X137160000Y-273050000D03*
X137160000Y-275590000D03*
D10*
G36*
X235539708Y-209068072D02*
X236374708Y-207621810D01*
X238480882Y-208837810D01*
X237645882Y-210284072D01*
X235539708Y-209068072D01*
X235539708Y-209068072D01*
G37*
D14*
X240969764Y-211238941D02*
X241849646Y-211746941D01*
D10*
G36*
X215154708Y-212824072D02*
X214319708Y-211377810D01*
X216425882Y-210161810D01*
X217260882Y-211608072D01*
X215154708Y-212824072D01*
X215154708Y-212824072D01*
G37*
D14*
X219749764Y-209206941D02*
X220629646Y-208698941D01*
D10*
G36*
X222839708Y-132868072D02*
X223674708Y-131421810D01*
X225780882Y-132637810D01*
X224945882Y-134084072D01*
X222839708Y-132868072D01*
X222839708Y-132868072D01*
G37*
D14*
X228269764Y-135038941D02*
X229149646Y-135546941D01*
D10*
G36*
X202454708Y-136624072D02*
X201619708Y-135177810D01*
X203725882Y-133961810D01*
X204560882Y-135408072D01*
X202454708Y-136624072D01*
X202454708Y-136624072D01*
G37*
D14*
X207049764Y-133006941D02*
X207929646Y-132498941D01*
D10*
G36*
X235539708Y-56668072D02*
X236374708Y-55221810D01*
X238480882Y-56437810D01*
X237645882Y-57884072D01*
X235539708Y-56668072D01*
X235539708Y-56668072D01*
G37*
D14*
X240969764Y-58838941D02*
X241849646Y-59346941D01*
D10*
G36*
X215154708Y-60424072D02*
X214319708Y-58977810D01*
X216425882Y-57761810D01*
X217260882Y-59208072D01*
X215154708Y-60424072D01*
X215154708Y-60424072D01*
G37*
D14*
X219749764Y-56806941D02*
X220629646Y-56298941D01*
D10*
G36*
X159339708Y-209068072D02*
X160174708Y-207621810D01*
X162280882Y-208837810D01*
X161445882Y-210284072D01*
X159339708Y-209068072D01*
X159339708Y-209068072D01*
G37*
D14*
X164769764Y-211238941D02*
X165649646Y-211746941D01*
D10*
G36*
X138954708Y-212824072D02*
X138119708Y-211377810D01*
X140225882Y-210161810D01*
X141060882Y-211608072D01*
X138954708Y-212824072D01*
X138954708Y-212824072D01*
G37*
D14*
X143549764Y-209206941D02*
X144429646Y-208698941D01*
D10*
G36*
X159339708Y-132868072D02*
X160174708Y-131421810D01*
X162280882Y-132637810D01*
X161445882Y-134084072D01*
X159339708Y-132868072D01*
X159339708Y-132868072D01*
G37*
D14*
X164769764Y-135038941D02*
X165649646Y-135546941D01*
D10*
G36*
X62754708Y-60424072D02*
X61919708Y-58977810D01*
X64025882Y-57761810D01*
X64860882Y-59208072D01*
X62754708Y-60424072D01*
X62754708Y-60424072D01*
G37*
D14*
X67349764Y-56806941D02*
X68229646Y-56298941D01*
D10*
G36*
X83139708Y-56668072D02*
X83974708Y-55221810D01*
X86080882Y-56437810D01*
X85245882Y-57884072D01*
X83139708Y-56668072D01*
X83139708Y-56668072D01*
G37*
D14*
X88569764Y-58838941D02*
X89449646Y-59346941D01*
D10*
G36*
X62754708Y-136624072D02*
X61919708Y-135177810D01*
X64025882Y-133961810D01*
X64860882Y-135408072D01*
X62754708Y-136624072D01*
X62754708Y-136624072D01*
G37*
D14*
X67349764Y-133006941D02*
X68229646Y-132498941D01*
D10*
G36*
X83139708Y-132868072D02*
X83974708Y-131421810D01*
X86080882Y-132637810D01*
X85245882Y-134084072D01*
X83139708Y-132868072D01*
X83139708Y-132868072D01*
G37*
D14*
X88569764Y-135038941D02*
X89449646Y-135546941D01*
D10*
G36*
X62754708Y-212824072D02*
X61919708Y-211377810D01*
X64025882Y-210161810D01*
X64860882Y-211608072D01*
X62754708Y-212824072D01*
X62754708Y-212824072D01*
G37*
D14*
X67349764Y-209206941D02*
X68229646Y-208698941D01*
D10*
G36*
X83139708Y-209068072D02*
X83974708Y-207621810D01*
X86080882Y-208837810D01*
X85245882Y-210284072D01*
X83139708Y-209068072D01*
X83139708Y-209068072D01*
G37*
D14*
X88569764Y-211238941D02*
X89449646Y-211746941D01*
D10*
G36*
X138954708Y-60424072D02*
X138119708Y-58977810D01*
X140225882Y-57761810D01*
X141060882Y-59208072D01*
X138954708Y-60424072D01*
X138954708Y-60424072D01*
G37*
D14*
X143549764Y-56806941D02*
X144429646Y-56298941D01*
D10*
G36*
X159339708Y-56668072D02*
X160174708Y-55221810D01*
X162280882Y-56437810D01*
X161445882Y-57884072D01*
X159339708Y-56668072D01*
X159339708Y-56668072D01*
G37*
D14*
X164769764Y-58838941D02*
X165649646Y-59346941D01*
D10*
G36*
X138954708Y-136624072D02*
X138119708Y-135177810D01*
X140225882Y-133961810D01*
X141060882Y-135408072D01*
X138954708Y-136624072D01*
X138954708Y-136624072D01*
G37*
D14*
X143549764Y-133006941D02*
X144429646Y-132498941D01*
M02*
